<svg width="216" height="210" viewBox="0 0 216 210" fill="none" xmlns="http://www.w3.org/2000/svg">
<path d="M46.9399 198.916C38.9658 190.904 36.8389 180.145 34.9658 170.655C33.9618 165.574 33.0114 160.77 31.3109 156.592C27.4662 147.153 22.4184 140.995 17.5344 135.038C9.63764 125.413 1.47393 115.457 0.410929 93.9772C-0.656422 72.3474 4.64377 56.287 16.6179 44.8801C28.3585 33.6913 45.1274 28.7661 58.4185 25.7282C67.0934 23.7403 75.2517 19.4329 83.882 14.868C91.3899 10.9003 99.1491 6.79739 107.617 4.10049C129.335 -2.80725 143.934 -0.406023 156.423 12.1411C161.241 16.9777 165.455 22.9794 169.914 29.3326C173.86 34.9457 177.934 40.7498 182.959 46.618C183.444 47.1832 183.976 47.7611 184.538 48.3258C187.268 51.0689 190.527 53.4269 193.967 55.9224C197.643 58.5873 201.44 61.3384 204.85 64.7657C208.934 68.8657 211.793 73.3065 213.583 78.3273C219.123 93.8478 213.887 103.28 208.828 112.397C206.765 116.113 204.637 119.95 203.095 124.417C201.131 130.117 200.554 136.259 199.939 142.766C199.005 152.71 198.036 162.994 191.92 172.412C180.146 190.539 161.639 192.023 148.744 191.566C144.605 191.423 140.793 190.911 137.107 190.42C129.443 189.396 122.826 188.513 115.994 191.402C113.952 192.265 111.563 194.541 109.255 196.742C106.485 199.382 103.615 202.112 100.1 203.896C87.3731 210.36 67.9088 212.826 53.1054 203.779C50.8326 202.373 48.7589 200.739 46.9399 198.916Z" fill="#D0F3FF"/>
</svg>
