<svg width="205" height="581" viewBox="0 0 205 581" fill="none" xmlns="http://www.w3.org/2000/svg">
<path d="M127 285H78V326H127V285Z" fill="#CFD8DC"/>
<path d="M135 334.143C135 329.648 131.36 326 126.875 326H78.125C73.6373 326 70 329.648 70 334.143V364C70 374.857 78.125 383 88.9583 383H116.042C124.167 383 135 374.857 135 364V334.143Z" fill="#03A9F4"/>
<path d="M97.5706 302H84V312H97.5706V302Z" fill="#546E7A"/>
<path d="M122 302H108.429V312H122V302Z" fill="#546E7A"/>
<path d="M127.004 480.673C106.053 448.779 106.311 403.879 112.148 383H90.5689C84.7325 403.879 88.4949 446.472 105.425 480.673C121.523 513.191 172.022 513.288 189.086 580.474L205 581C192.2 501.354 148.15 512.864 127.004 480.673Z" fill="#0288D1"/>
<path d="M70 245.857C70 250.352 73.64 254 78.125 254H126.875C131.363 254 135 250.352 135 245.857V216C135 205.143 126.875 197 116.042 197H88.9583C80.8333 197 70 205.143 70 216V245.857Z" fill="#95CEFF"/>
<path d="M77.9959 99.8204C98.9471 131.554 98.6887 176.226 92.8523 197H114.431C120.268 176.226 116.505 133.849 99.5747 99.8204C83.4775 67.4667 32.9779 67.37 15.9139 0.523163L0 0C12.8004 79.2438 56.85 67.7921 77.9959 99.8204Z" fill="#0288D1"/>
<g clip-path="url(#clip0_749_16313)">
<circle cx="135" cy="201" r="24" fill="#FF647C"/>
<path d="M137.75 183.15L137.2 208.15H133.4L132.85 183.15H137.75ZM135.5 218.3C134.633 218.3 133.9 218 133.3 217.4C132.7 216.8 132.4 216.067 132.4 215.2C132.4 214.333 132.7 213.6 133.3 213C133.9 212.4 134.633 212.1 135.5 212.1C136.333 212.1 137.033 212.4 137.6 213C138.2 213.6 138.5 214.333 138.5 215.2C138.5 216.067 138.2 216.8 137.6 217.4C137.033 218 136.333 218.3 135.5 218.3Z" fill="white"/>
</g>
<defs>
<clipPath id="clip0_749_16313">
<rect width="48" height="48" fill="white" transform="translate(111 177)"/>
</clipPath>
</defs>
</svg>
