<svg width="208" height="94" viewBox="0 0 208 94" fill="none" xmlns="http://www.w3.org/2000/svg">
<path d="M73.9721 9.89983C73.965 10.0399 73.9573 10.179 73.9496 10.3191C74.2647 10.4079 74.5798 10.4966 74.8943 10.5865C74.8995 10.4263 74.9047 10.2649 74.9099 10.1047C74.5973 10.036 74.2847 9.96848 73.9721 9.89983ZM147.359 84.4527C147.308 84.4713 147.255 84.4911 147.203 84.5108C147.317 84.8285 147.43 85.1474 147.542 85.4651C147.658 84.9965 147.774 84.5279 147.889 84.0604C147.855 84.0194 147.821 83.9795 147.788 83.9385C147.645 84.1095 147.502 84.2817 147.359 84.4527ZM41.2103 8.6176C41.2169 8.4831 41.2225 8.34859 41.2291 8.21409C41.0048 8.05577 40.784 7.86159 40.5559 7.76493C40.4982 7.74106 40.3647 8.02506 40.3655 8.17067C40.3671 8.36779 40.4635 8.73056 40.5205 8.7354C40.7502 8.75587 40.9802 8.66659 41.2103 8.6176ZM89.154 6.14807C89.1626 5.99562 89.1707 5.8454 89.18 5.69294C88.9303 5.53497 88.682 5.34784 88.4286 5.24816C88.3789 5.22754 88.2616 5.54724 88.2616 5.71638C88.2617 5.89672 88.363 6.23698 88.4216 6.24068C88.6649 6.26432 88.9098 6.18717 89.154 6.14807ZM144.846 84.7449C145.039 85.8995 145.362 86.0408 145.675 85.1405C145.579 84.827 145.481 84.508 145.393 84.219C145.201 84.4042 145.039 84.5598 144.846 84.7449ZM150.785 85.1195C150.789 84.3578 150.791 83.7036 150.458 83.7439C150.317 83.7614 150.067 84.2867 150.081 84.5251C150.145 85.6623 150.497 84.8792 150.785 85.1195ZM128.535 86.2972C128.111 86.2468 127.76 86.2056 127.409 86.1644C127.409 86.226 127.41 86.2864 127.411 86.348C127.797 86.8178 128.181 87.2876 128.659 87.8716C128.604 87.17 128.565 86.6665 128.535 86.2972ZM8.72403 37.6918C8.63659 38.2183 8.57474 38.5933 8.51274 38.9694C8.54155 39.0541 8.57013 39.1388 8.5994 39.2247C8.89369 39.0135 9.24572 38.9607 9.45586 38.5177C9.54322 38.3317 9.33072 37.3242 9.25483 36.6901C9.20978 36.7209 9.16513 36.7517 9.12049 36.7837C9.10202 37.1793 9.08378 37.5761 9.06531 37.9718C9.02589 37.9645 8.98582 37.9594 8.9464 37.9521C8.94206 37.6262 8.93774 37.3014 8.93249 36.9072C8.72356 37.0096 8.54463 37.058 8.37834 37.1935C8.29635 37.2595 8.23871 37.4854 8.17043 37.6387C8.26876 37.7102 8.36643 37.8164 8.46628 37.8409C8.53577 37.859 8.60811 37.765 8.72403 37.6918ZM9.89524 37.7154C10.1674 37.4071 10.3863 37.1141 10.6191 36.9049C10.9127 36.64 10.9084 36.3197 10.6986 35.815C10.3277 34.9239 10.1419 34.8704 9.75307 35.6182C9.64119 35.8348 9.52934 36.0502 9.4158 36.269C9.47647 36.7656 9.53013 37.2129 9.55723 37.4354C9.73193 37.5809 9.83723 37.668 9.89524 37.7154ZM85.0627 7.35515C84.1862 6.97476 83.3503 6.98363 82.4712 7.2552C82.813 8.58809 84.6348 8.59747 85.0627 7.35515ZM95.2485 90.5689C95.2538 90.7133 95.2591 90.8577 95.2649 91.001C95.4782 91.1292 95.7664 91.5275 95.8915 91.332C96.3424 90.6327 96.7999 90.9346 97.2707 91.0124C97.5497 91.0579 97.832 90.9164 98.1125 90.8578C98.1216 90.6998 98.1296 90.5417 98.1388 90.3847C97.9454 90.1801 97.7484 89.7974 97.5589 89.8044C96.9916 89.8276 96.4254 89.9763 95.8621 90.1362C95.6525 90.195 95.4524 90.4194 95.2485 90.5689ZM51.0918 87.7345C51.2625 88.5051 51.4692 88.7455 51.7597 88.5792C52.0946 88.3865 52.4288 88.1816 52.7651 88.0068C53.0517 87.8585 53.3411 87.7427 53.6297 87.6122C53.6172 87.4332 53.6036 87.2541 53.5898 87.074C52.7585 86.7501 51.9317 86.5506 51.0918 87.7345ZM101.757 89.5794C101.852 90.5056 102.128 90.6431 102.449 90.501C102.829 90.3335 103.203 90.0911 103.582 89.9024C103.896 89.7447 104.214 89.6184 104.531 89.4786C103.977 88.2919 102.745 88.4618 101.757 89.5794ZM66.3556 85.5364C66.3537 85.644 66.3523 85.7538 66.351 85.8624C67.4546 86.8671 68.5736 87 69.7202 86.2387C69.4211 85.872 69.117 85.5602 68.8024 85.3762C68.3108 85.0915 67.7959 84.4408 67.3967 85.8563C67.2629 86.3308 67.0279 86.4236 66.9519 85.5733C66.9341 85.3831 66.9024 85.1987 66.8742 84.9795C66.6778 85.1894 66.5164 85.3629 66.3556 85.5364ZM69.3074 87.1785C69.3042 87.239 69.3017 87.2995 69.2985 87.36C70.0295 87.711 70.7604 88.0608 71.5056 88.4206C71.6871 88.3207 71.9117 88.1217 72.1431 88.0883C72.4597 88.0438 72.781 88.1303 73.1014 88.1506C73.6222 88.1818 74.0422 87.8301 74.2808 87.1123C72.6012 87.1346 70.9549 87.1565 69.3074 87.1785ZM107.535 2.34809C107.398 2.6714 107.368 2.80513 107.335 2.80893C106.266 2.92733 105.198 3.02108 104.13 3.15738C104.005 3.17361 103.885 3.40816 103.766 3.55313C103.695 3.63808 103.619 3.85751 103.562 3.82466C103.201 3.6144 103.302 4.20789 103.256 4.5927C104.156 4.71738 105.006 4.75532 105.851 4.97258C106.716 5.19629 107.583 5.90279 108.434 5.82873C109.206 5.76245 110.006 6.60869 110.749 5.92672C110.97 5.84762 111.165 5.72296 111.361 5.72371C111.537 5.72473 111.714 5.90491 111.891 5.92608C111.996 5.937 112.102 5.79335 112.208 5.72025C112.127 5.49842 112.048 5.27207 111.965 5.05699C111.918 4.93887 111.864 4.8377 111.833 4.59729C112.482 5.09943 113.196 4.20276 113.819 5.56329C114.047 6.06207 114.488 6.12451 114.833 6.15465C115.478 6.20879 116.127 6.15758 116.768 6.03143C117.182 5.94863 117.636 6.27975 118.007 5.54112C118.053 5.45091 118.195 5.52746 118.264 5.63631C118.884 6.60595 119.579 6.39729 120.251 6.51828C120.841 6.62692 121.432 6.72213 122.022 6.76245C122.149 6.77083 122.277 6.52154 122.365 6.15296C122.895 6.33969 123.424 6.52533 124.003 6.73045C124.247 8.10608 124.85 7.54358 125.318 7.73561C125.93 7.98621 126.586 7.74564 127.168 8.18146C127.608 8.50942 127.993 8.24332 128.399 8.35777C128.556 8.40161 128.71 8.50819 128.847 8.69567C129.21 8.6158 129.572 8.53481 129.879 8.46463C130.012 8.16492 130.145 7.6602 130.233 7.70832C130.402 7.80241 130.546 8.20146 130.698 8.48284C130.812 8.69638 130.911 9.05578 131.036 9.12357C131.598 9.42859 132.169 9.63044 132.734 9.92537C132.871 9.99524 132.991 10.2725 133.125 10.4645C133.21 10.3447 133.309 10.0745 133.403 10.0912C134.368 10.2587 135.334 10.4565 136.298 10.6777C137.423 10.9349 138.548 11.2112 139.672 11.5099C139.926 11.5771 140.174 11.8269 140.428 11.9008C141.001 12.0668 141.576 12.1924 142.151 12.2834C142.228 12.2958 142.31 12.0169 142.351 11.9447C142.558 12.0886 142.793 12.4093 142.998 12.3337C143.12 12.2884 143.195 11.6198 143.335 11.0567C143.573 11.2059 143.908 11.4759 144.25 11.5946C144.348 11.628 144.468 11.2198 144.498 11.1622C145.098 11.3133 145.639 11.4797 146.182 11.5756C146.712 11.6693 147.242 11.6881 147.794 11.7423C147.847 11.4414 147.898 11.145 147.983 10.6645C147.989 11.7879 148.223 11.889 148.573 11.8462C148.998 11.7946 149.429 12.0073 149.859 12.0419C150.067 12.0582 150.274 11.8795 150.484 11.8711C151.038 11.8492 151.599 11.9706 152.146 11.8345C152.411 11.7693 152.856 11.9561 152.833 10.5517C152.467 10.3561 152.084 10.0722 151.695 9.96087C151.093 9.78965 150.484 9.80449 149.884 9.60413C149.543 9.48881 149.217 9.08654 148.879 8.84796C148.802 8.79299 148.703 8.93323 148.623 8.88725C148.494 8.81168 148.335 8.73647 148.255 8.52023C148.064 8.00079 147.942 7.76052 147.835 8.6334C147.744 9.37838 147.465 9.40671 147.204 9.39898C146.471 9.37849 145.738 9.30423 145.005 9.30727C144.796 9.30893 144.589 9.49763 144.337 9.62195C144.226 9.34003 144.06 8.91997 143.894 8.49989C143.814 8.79891 143.735 9.09792 143.654 9.39695C143.625 9.52391 143.596 9.65201 143.567 9.77784C143.433 9.36855 143.298 8.95925 143.163 8.54884C143.133 8.41931 143.103 8.28976 143.073 8.16023C143.001 8.49947 142.928 8.8387 142.82 9.34756C142.74 8.90729 142.685 8.6011 142.603 8.1463C143.111 7.89087 143.572 7.65846 144.052 7.41571C144.003 7.04337 143.964 6.7437 143.924 6.44403C143.949 6.38769 143.974 6.3325 144 6.27616C144.087 6.45197 144.228 6.59678 144.253 6.80928C144.328 7.477 144.497 7.52183 144.738 7.51078C145.593 7.47252 146.449 7.52494 147.304 7.46876C147.616 7.44893 147.92 7.17943 148.233 7.09798C148.554 7.01305 148.881 7.00088 149.206 6.98423C150.207 6.93618 151.212 6.97208 152.21 6.8255C152.622 6.76514 153.023 6.34424 153.423 6.05327C153.882 5.72008 154.342 5.43389 154.794 4.99103C155.272 4.52316 155.923 5.00293 156.498 5.10393C156.795 5.1571 157.091 5.29202 157.387 5.38329C157.446 5.40155 157.52 5.33674 157.562 5.40338C158.125 6.29424 158.72 6.34119 159.35 6.05501C159.542 5.96844 159.767 6.31832 159.974 6.30661C160.123 6.29791 160.267 6.02267 160.293 5.99433C160.734 6.29425 161.072 6.62019 161.42 6.73766C162.115 6.97484 162.814 7.11226 163.513 7.25642C163.754 7.30698 163.998 7.25894 164.281 7.25516C164.298 7.15076 164.339 6.90153 164.4 6.5378C164.549 6.91218 164.662 7.19743 164.775 7.48268C164.777 7.38632 164.781 7.28993 164.783 7.19357C165.448 7.33258 166.112 7.4873 166.776 7.60055C167.024 7.64318 167.274 7.5928 167.522 7.58165C167.563 7.57887 167.612 7.51436 167.642 7.55205C168.517 8.68855 169.484 8.67342 170.422 9.01154C171.027 9.22863 171.634 9.39085 172.243 9.52949C172.528 9.59514 172.816 9.54538 173.102 9.54381C173.178 9.54279 173.271 9.45082 173.328 9.52735C174.137 10.5964 174.614 8.84598 175.242 8.37277C175.531 8.15498 175.847 8.04999 176.151 8.0493C176.389 8.04949 176.635 8.25009 176.866 8.44528C176.955 8.51915 177.012 8.82303 177.084 9.02258C176.996 9.19289 176.919 9.45492 176.818 9.51787C176.482 9.72846 176.136 9.86634 175.794 10.0311C175.79 10.207 175.786 10.3818 175.783 10.5566C176.082 10.7228 176.379 10.9205 176.68 11.0521C177.569 11.4401 178.456 11.9447 179.351 12.1322C180.158 12.3029 180.974 12.0982 181.786 12.1076C181.948 12.1099 182.109 12.3542 182.272 12.4584C182.505 12.6077 182.746 13.4367 182.918 12.5843C183.172 12.7265 183.388 12.8491 183.715 13.034C183.573 12.2261 183.485 11.6929 183.386 11.1712C183.268 10.56 183.264 10.5646 183.575 10.342C184.074 11.386 184.326 12.5297 183.822 13.9085C183.679 13.8533 183.492 13.7471 183.304 13.7216C183.185 13.7064 183.063 13.8122 182.943 13.8642C182.989 14.1257 183.006 14.4907 183.088 14.6274C183.349 15.0652 183.619 15.5444 183.915 15.7735C184.321 16.0884 184.754 16.1678 185.173 16.3862C185.631 16.6266 186.087 16.9117 186.544 17.17C186.632 17.2203 186.748 17.3431 186.806 17.2572C187.497 16.2634 188.261 16.5725 189.006 16.6914C189.338 16.7441 189.662 17.1319 189.996 17.2506C190.283 17.351 190.632 17.6174 190.727 16.6551C191.587 18.12 192.132 16.6532 192.732 15.5587C192.434 13.8454 191.614 14.0221 191.111 12.9389C191.927 13.2171 192.745 13.4616 193.556 13.8204C193.66 13.8672 193.818 14.5719 193.791 14.8814C193.579 17.3407 193.608 17.5251 194.516 18.6601C194.602 18.7687 194.692 19.1125 194.692 19.3422C194.692 20.9708 194.807 22.5117 195.136 23.9904C195.307 24.7621 195.42 24.7517 195.617 24.0647C195.67 24.2051 195.767 24.3617 195.759 24.4604C195.659 25.7006 196.049 26.4089 196.319 27.1883C196.443 27.544 196.707 27.6178 196.908 27.8178C196.957 27.4621 196.971 27.0284 197.065 26.7628C197.273 26.1731 197.521 25.6658 197.754 25.1284C197.859 24.8884 197.952 24.5993 198.074 24.433C198.202 24.2599 198.359 24.2074 198.504 24.1024C198.526 24.3519 198.562 24.6023 198.564 24.8509C198.567 25.094 198.519 25.3343 198.519 25.5785C198.519 27.1243 198.38 27.423 197.726 27.0957C197.734 27.668 197.741 28.2134 197.749 28.8114C198.173 28.7576 198.569 28.7086 199.02 28.6522C199.074 29.1477 199.155 29.8938 199.247 30.7405C199.617 29.9 200.038 29.9369 200.555 30.8698C201.029 31.7216 201.58 31.4342 202.09 31.7265C202.171 31.7736 202.282 31.4887 202.446 31.267C202.432 31.5673 202.455 31.8538 202.408 31.9519C202.033 32.7443 202.346 32.9149 202.596 33.186C203.062 33.6917 203.543 33.7077 204.041 33.7246C204.472 33.7368 204.929 33.9167 205.282 35.0467C205.09 34.9786 204.957 34.9333 204.725 34.8524C204.824 35.3843 204.901 35.7977 204.976 36.2033C204.54 36.3615 204.371 36.0389 204.333 35.0727C204.324 34.8656 204.206 34.5379 204.125 34.5042C203.693 34.3252 203.257 34.2234 202.74 34.0712C202.795 34.5309 202.832 34.8227 202.865 35.1169C202.947 35.8562 203.017 36.5229 202.64 36.9939C202.457 37.2237 202.352 37.7683 202.509 38.4103C202.615 38.8357 202.644 39.3663 202.721 39.9645C203.405 38.0893 203.952 39.9213 204.596 40.2454C204.38 40.5216 204.208 40.74 204.014 40.9901C203.803 40.7734 203.555 40.4552 203.292 40.2739C203.187 40.2025 203.039 40.3971 202.932 40.5554C202.901 40.6006 202.928 41.0897 202.962 41.1173C203.064 41.1977 203.182 41.1547 203.294 41.1566C203.385 41.1576 203.476 41.1542 203.509 41.1537C203.48 41.7041 203.458 42.121 203.436 42.5369C203.589 42.3926 203.74 42.2472 203.969 42.028C204.08 42.227 204.445 42.2445 204.321 43.3731C204.196 43.0532 204.118 42.8549 204.041 42.6566C204.009 42.6738 203.977 42.6921 203.944 42.7094C203.96 43.0665 203.926 43.4993 203.999 43.7661C204.162 44.3632 204.248 44.8448 204.003 45.4193C203.95 45.5443 203.961 46.0864 204.015 46.1786C204.244 46.5654 204.5 46.8532 204.745 47.1781C204.772 47.0926 204.797 47.0072 204.824 46.9206C204.881 47.2872 204.938 47.6539 205.02 48.1792C205.116 47.824 205.18 47.589 205.239 47.3676C205.573 47.6163 205.165 49.1877 205.689 48.8973C205.881 49.5041 206.052 50.0473 206.269 50.7367C206.119 52.7952 206.574 54.8738 206.808 57.0247C207.028 59.0425 207.279 61.0453 207.052 63.106C206.946 64.0696 206.755 64.9772 206.58 65.8824C206.541 66.0789 206.403 66.1569 206.244 66.0963C206.318 65.8803 206.392 65.6631 206.486 65.3851C206.302 64.9227 206.116 64.4536 205.93 63.9856C206.315 63.463 206.418 62.0716 206.129 61.2578C206.09 61.1451 206.041 61.0483 205.999 60.9368C205.599 59.8691 205.599 59.8691 205.181 60.9702C204.859 59.7378 204.545 58.5412 204.224 57.3155C204.061 57.3401 203.869 57.3673 203.739 57.387C203.514 58.1707 203.307 58.8915 203.1 59.6122C203.071 59.5006 203.042 59.389 203.014 59.2763C202.786 59.4182 202.56 59.6721 202.33 59.6785C201.885 59.6923 201.646 60.5579 201.29 60.911C200.544 61.649 200.354 61.5855 199.836 59.4899C199.657 60.1028 199.449 60.5894 199.357 61.1888C199.207 62.1608 199.045 63.0389 198.645 63.5618C198.586 63.6387 198.598 64.0239 198.577 64.2672C198.726 64.3089 198.876 64.3506 199.025 64.3923C199.027 64.306 199.03 64.2187 199.032 64.1324C199.225 64.421 199.417 64.7109 199.655 65.0684C199.347 65.5664 199.186 66.5297 198.752 65.832C198.741 65.8153 198.716 65.8179 198.708 65.8359C198.328 66.6956 197.701 66.4721 197.372 67.5496C197.328 67.6924 197.231 67.8516 197.242 67.9635C197.422 69.8698 196.679 69.7901 196.324 70.057C195.614 70.5895 194.837 70.6424 194.087 70.872C193.94 70.9165 193.781 70.8043 193.637 70.869C193.484 70.936 193.283 71.0238 193.207 71.2847C192.932 72.2057 192.702 73.2046 192.422 74.3016C192.87 73.964 193.28 73.5699 193.707 73.3581C194.074 73.1762 194.461 73.1431 194.84 73.1503C195.294 73.1577 195.3 73.9026 195.152 74.6035C195.029 75.1899 194.822 75.6675 194.653 76.1862C194.943 76.4993 195.493 76.1212 195.582 75.3539C195.696 74.3666 195.92 73.8148 196.403 73.6078C196.348 73.9413 196.331 74.2641 196.257 74.4521C195.95 75.2213 195.977 75.7575 196.421 76.1481C196.505 76.2231 196.563 76.4878 196.599 76.8391C196.408 76.7173 196.217 76.5944 195.999 76.4539C195.95 76.7682 195.94 77.1201 195.861 77.2802C195.721 77.5621 195.456 78.0069 195.391 77.8924C195.029 77.2554 194.768 77.9052 194.456 78.0337C193.737 78.3289 193.011 78.725 192.271 78.0078C191.621 77.3791 191.305 77.8494 191.084 79.4362C191.008 79.9916 190.778 80.4036 190.651 80.9306C190.51 81.5228 190.428 82.2049 190.278 82.7826C190.17 83.2008 189.97 83.4734 189.856 83.8837C189.761 84.2244 189.688 84.6633 189.679 85.0734C189.661 85.9194 189.694 86.777 189.707 87.7984C189.234 87.2323 188.846 86.7659 188.411 86.2463C188.337 86.8858 188.268 87.4871 188.189 88.1793C187.901 87.7967 187.735 87.4729 187.807 86.6722C187.91 85.5238 187.536 84.8219 187.256 83.729C187.131 84.4756 187.065 85.0175 186.955 85.5017C186.684 86.6893 186.384 87.837 186.115 89.0257C186.023 89.4279 185.984 89.9033 185.892 90.5565C185.417 89.632 184.953 88.7298 184.496 87.8386C184.231 88.3563 183.905 88.9957 183.576 89.6285C183.249 90.259 182.978 91.1565 182.443 90.9664C182.494 90.2657 182.542 89.6187 182.595 88.8899C181.832 88.5259 181.127 88.1903 180.306 87.7992C180.55 87.6503 180.684 87.569 180.862 87.4613C180.704 86.7577 180.489 86.4335 180.219 86.6522C179.855 86.9471 179.566 86.7 179.282 86.155C178.857 85.3407 178.392 84.7756 177.841 85.0104C177.604 85.111 177.379 85.3626 177.164 85.6679C176.116 84.8967 175.036 84.2042 173.9 84.0569C173.277 83.9756 172.659 83.9133 172.049 83.125C171.612 82.5617 171.033 82.5952 170.516 82.4991C170.008 82.405 169.495 82.4555 168.986 82.5037C168.799 82.523 168.617 82.7169 168.433 82.8359C168.404 82.8531 168.37 82.9421 168.352 82.9221C167.813 82.311 167.439 83.5459 166.943 83.558C166.45 83.5713 165.96 84.008 165.468 83.9865C165.14 83.9719 164.804 83.5137 164.481 83.1954C164.205 82.9236 163.955 82.7678 163.734 83.3902C163.698 83.4937 163.635 83.5842 163.579 83.6006C163.14 83.7285 163.073 84.5471 162.946 85.3687C162.821 86.1702 162.601 86.89 162.397 87.6018C162.258 88.0842 162.094 87.9441 161.884 87.6545C161.632 87.3107 161.33 87.1847 161.05 86.97C160.987 86.9216 160.87 86.9131 160.865 86.8515C160.85 86.6669 160.869 86.456 160.894 86.2709C160.905 86.1834 160.965 86.1423 160.994 86.0612C161.103 85.754 161.208 85.4412 161.315 85.1295C161.103 84.9878 160.891 84.7487 160.677 84.7246C160.207 84.6737 159.734 84.6801 159.267 84.7703C159.073 84.8076 158.89 85.1147 158.66 85.3418C158.427 85.1578 158.139 84.9309 157.768 84.6379C157.57 85.167 157.317 85.8436 157.043 86.5764C157.024 86.3952 156.964 86.163 156.989 86.0249C157.2 84.8751 156.946 84.8886 156.586 84.9964C156.033 85.1617 155.474 85.2352 154.92 85.3826C154.794 85.4157 154.678 85.5942 154.555 85.7C154.461 85.7796 154.361 85.9412 154.271 85.9099C153.766 85.7329 153.262 85.5077 152.716 85.282C152.722 85.7244 152.725 86.0156 152.734 86.6607C152.447 86.2175 152.237 85.8944 151.968 85.479C151.872 85.552 151.694 85.6966 151.514 85.8222C151.467 85.8553 151.384 85.88 151.366 85.822C151.103 84.9652 151.05 85.7701 150.922 86.1448C150.644 85.2905 150.507 85.7337 150.425 86.5054C149.85 85.6708 149.284 85.6155 148.746 86.1111C148.775 86.5677 148.798 86.946 148.822 87.3254C148.673 86.9992 148.524 86.6719 148.353 86.2989C148.311 86.4115 148.236 86.613 148.161 86.8145C147.378 85.8101 146.648 87.0004 145.899 86.9913C145.858 86.6984 145.823 86.4558 145.789 86.2154C145.697 86.2928 145.594 86.3323 145.515 86.4577C145.325 86.766 145.146 87.1134 144.962 87.4452C144.924 87.3068 144.886 87.1672 144.849 87.0277C145.004 86.8632 145.159 86.6976 145.314 86.5331C145.315 86.4603 145.316 86.3886 145.316 86.3169C144.959 86.2567 144.601 86.1976 144.243 86.1397C144.241 86.2461 144.238 86.3548 144.236 86.4635C144.385 86.7303 144.537 86.9882 144.676 87.2832C144.689 87.311 144.621 87.5662 144.551 87.9132C144.138 87.0428 143.793 86.1289 143.376 85.5038C143.074 85.0508 142.676 84.981 142.288 84.7173C142.371 86.5219 141.724 85.901 141.423 86.4012C141.356 86.5119 141.212 86.5328 141.203 86.6495C141.065 88.3236 140.489 88.3426 139.966 88.4895C139.604 88.5896 139.232 88.5206 138.865 88.5624C138.114 88.6508 137.363 88.7605 136.611 88.8623C136.593 88.9544 136.575 89.0465 136.557 89.1386C136.832 89.4027 137.106 89.6668 137.492 90.0391C137.067 90.0448 136.751 90.0557 136.436 90.0509C136.107 90.0463 136.079 89.8899 136.321 88.864C135.989 88.79 135.71 88.7276 135.393 88.6557C135.475 89.2583 135.521 89.6005 135.568 89.9437C135.484 89.9549 135.338 90.0274 135.328 89.9693C135.257 89.5547 135.213 89.1139 135.136 88.4832C133.502 88.6562 131.811 88.8344 130.121 89.0148C130.046 89.0226 129.949 89.1258 129.901 89.0446C129.27 87.9911 128.634 88.5731 127.98 88.7554C127.278 88.953 126.558 88.8483 125.846 88.9093C125.281 88.9583 124.716 89.0587 124.152 89.1379C124 89.1601 123.848 89.2327 123.696 89.2168C122.882 89.1279 122.066 89.0212 121.251 88.9089C121.182 88.8986 121.114 88.7986 121.046 88.5699C121.521 88.4841 121.996 88.3971 122.498 88.3042C122.47 87.7456 122.446 87.2609 122.411 86.5669C122.153 86.949 121.957 87.2383 121.759 87.5322C121.169 86.2474 120.38 86.4528 119.91 88.0462C119.581 89.1607 119.542 89.2038 119.065 88.8573C119.385 88.3333 119.567 87.7215 119.267 86.7342C119.06 86.9654 118.842 87.2092 118.585 87.496C118.581 87.4904 118.441 87.1652 118.401 87.2251C117.623 88.3713 116.697 87.52 115.888 88.1737C115.785 88.2569 115.7 88.463 115.622 88.585C115.848 88.9595 116.007 89.3203 116.194 89.4914C116.285 89.5753 116.444 89.3581 116.546 89.1854C116.826 88.7146 117.093 88.4915 117.375 89.1509C117.09 89.4246 116.799 89.6021 116.555 89.9582C116.066 90.6704 115.542 90.1061 115.041 90.2315C114.608 90.3403 114.179 90.5342 113.744 90.6072C113.608 90.6292 113.37 90.4587 113.337 90.243C113.129 88.9195 112.706 89.3866 112.334 89.3714C111.931 89.3555 111.483 89.6056 111.263 88.4078C110.992 88.5503 110.73 88.6916 110.467 88.8261C110.401 88.8595 110.312 88.9469 110.266 88.8803C109.722 88.0934 109.204 88.5326 108.668 88.8657C108.458 88.9962 108.21 88.8293 107.98 88.7663C107.489 88.6294 106.998 88.469 106.498 88.5608C106.921 89.1768 107.345 89.794 107.792 90.4433C107.749 91.2593 107.56 91.6954 107.205 91.7304C106.798 91.7716 106.366 91.6284 105.99 91.9044C105.329 92.3904 104.708 91.5922 104.056 91.7219C103.147 91.9042 102.221 91.6981 101.306 91.7977C100.859 91.8462 100.424 92.3415 99.9771 92.3967C99.3345 92.4758 98.685 92.3232 98.0382 92.2982C97.8581 92.2905 97.6742 92.4654 97.498 92.414C97.1072 92.2971 96.6606 92.601 96.3633 91.6069C96.352 91.5668 96.2808 91.6282 96.1889 91.6563C96.2692 91.9409 96.333 92.1663 96.3967 92.3906C96.3813 92.4558 96.3664 92.5209 96.3504 92.5861C95.9968 92.2682 95.6401 91.9705 95.2928 91.6133C95.2352 91.5547 95.2024 91.2494 95.1879 91.048C95.0961 89.7319 94.7508 89.3556 94.2761 89.9556C94.1051 90.173 93.8669 90.1101 93.6579 90.1353C93.3996 90.1678 93.1298 90.0616 92.8841 90.1971C92.6668 90.3176 92.3688 90.5803 92.3054 90.9766C92.2478 91.3391 92.4542 91.9648 92.5476 92.4721C92.5816 92.6598 92.6239 92.8407 92.6762 93.0887C91.3043 93.1069 89.9729 93.1247 88.5779 93.1432C88.5727 92.7501 88.5656 92.2181 88.5562 91.5069C88.1293 91.5126 87.6714 91.5187 87.2141 91.5248C87.2067 91.3894 87.1998 91.254 87.1924 91.1197C87.3539 91.0425 87.5149 90.9641 87.8079 90.8247C87.6413 90.6074 87.5401 90.3645 87.4457 90.3725C86.9861 90.4111 86.5199 90.4263 86.0708 90.6238C85.5886 90.8352 85.3704 89.9946 85.0315 89.4267C84.9542 89.7493 84.8609 90.1358 84.8199 90.3077C84.5522 90.3113 84.368 90.3407 84.1859 90.3106C83.8172 90.2517 83.4464 90.0751 83.0805 90.1024C82.5915 90.1391 82.1068 90.3259 81.6201 90.4455C81.5377 90.4657 81.4539 90.5116 81.3731 90.4869C80.7981 90.3153 80.1913 89.7835 79.6581 90.0404C79.1119 90.3053 78.658 89.8857 78.1627 89.7433C78.0464 89.7101 77.9227 89.7622 77.8071 89.8197C77.5136 89.9625 77.2204 90.1681 76.9875 89.107C76.9084 89.5057 76.8556 89.7685 76.8077 90.0134C76.3761 89.2899 76.0564 88.7251 75.6202 89.8119C75.4574 90.2195 74.9899 89.9211 74.6609 89.9322C73.8298 89.9611 72.9975 89.9846 72.1663 90.0023C72.0645 90.0048 71.9628 89.9714 71.8354 89.9507C71.839 90.2251 71.8426 90.4951 71.8463 90.7728C71.3662 89.5269 70.8713 89.0764 70.2936 90.2692C70.1077 90.0768 69.8709 89.8324 69.6342 89.5869C69.2072 88.6528 68.7917 88.3334 68.6417 88.8596C67.7921 88.2571 66.9811 87.6877 66.1717 87.1048C65.711 86.7726 65.2602 86.2947 64.7926 86.115C64.4624 85.9884 64.1089 86.2272 63.7703 86.3605C63.6908 86.3907 63.6302 86.657 63.5057 86.9387C63.7062 87.0402 63.828 87.1013 63.9724 87.1744C63.9713 87.3066 63.9875 87.5461 63.9658 87.5677C63.6836 87.8369 63.4035 88.2203 63.1085 88.2904C62.5971 88.4125 62.0751 88.3366 61.5261 88.3439C61.3715 87.2068 60.9931 87.4773 60.6459 87.4696C60.2942 87.4619 59.887 87.7709 59.6853 86.5616C59.5342 86.6678 59.3811 86.8715 59.2264 86.8679C58.8054 86.8601 58.3829 86.7335 57.9613 86.7134C57.7823 86.7035 57.5796 86.7364 57.4315 86.9322C57.1606 87.292 56.9519 87.1245 56.6666 86.9087C56.2398 86.584 55.7678 86.6305 55.3048 86.6636C55.7149 87.3459 56.2375 87.4678 56.5005 88.9641C56.3976 90.0263 55.8552 89.6806 55.4413 89.8699C55.1271 90.0129 54.8049 90.1057 54.484 90.1358C54.3475 90.1466 54.2051 89.8504 54.0661 89.8445C53.5213 89.8226 52.9767 89.8702 52.4322 89.8729C51.9709 89.8757 51.5055 89.7755 51.048 89.8623C50.5246 89.9622 50.011 90.3107 49.4872 90.3826C48.9192 90.4596 48.3445 90.3373 47.7727 90.3169C47.5897 90.3104 47.4068 90.3879 47.2251 90.36C46.8847 90.3063 46.5033 90.5567 46.2605 89.6415C46.2527 89.6124 46.1789 89.6862 46.1053 89.7309C46.1713 89.9551 46.2261 90.1437 46.2814 90.3323C46.2661 90.4076 46.2509 90.4828 46.2361 90.558C45.8801 90.2323 45.5241 89.9055 45.1682 89.5798C45.1741 89.4789 45.1802 89.3792 45.1855 89.2794C46.0678 89.1669 46.9491 89.0532 47.892 88.9331C47.7046 88.1302 47.5801 87.7421 47.2169 88.0348C46.9007 88.2888 46.5319 88.1839 46.1881 88.2635C45.8617 88.3407 45.5368 88.4492 45.1553 88.5606C44.9851 87.9905 44.7981 86.9995 44.3528 88.2039C44.2599 88.4539 43.9445 88.2217 43.7317 88.2133C43.5938 88.2084 43.4546 88.18 43.3187 88.2087C42.7117 88.3389 42.2958 88.8238 42.8724 90.6398C42.9023 90.7368 42.8961 90.9004 42.9075 91.0481C41.6826 91.0644 40.4823 91.0804 39.2268 91.0971C39.2322 90.7117 39.2387 90.2255 39.2472 89.6194C38.8656 89.5808 38.4679 89.5402 38.0696 89.5007C38.0603 89.3955 38.0517 89.2903 38.0419 89.1863C38.4245 89.0669 38.8066 88.9476 39.1887 88.8272C39.1937 88.7364 39.1975 88.6456 39.2024 88.5548C38.6522 88.2977 38.1032 88.0396 37.49 87.7532C37.2123 88.355 36.405 88.3669 36.224 87.8283C35.7771 87.9798 35.3903 88.1564 34.9997 88.2344C34.4033 88.3532 33.8041 88.472 33.2057 88.4609C32.6376 88.4494 32.0642 88.1513 31.4994 88.2003C30.9162 88.2495 30.3453 88.4318 29.7984 87.6998C29.772 87.6654 29.7062 87.7851 29.6642 87.8528C29.3876 88.2889 29.1409 88.2586 28.8704 87.3336C28.8201 87.6703 28.7784 87.9519 28.7396 88.2123C28.3346 87.4135 28.0371 86.9593 27.6634 87.959C27.552 88.2584 27.2304 88.1339 27.0037 88.1403C26.0831 88.1682 25.1617 88.1715 24.2116 88.1842C24.232 88.4393 24.2516 88.6933 24.2787 89.0469C23.8795 87.5703 23.2129 87.3618 22.9399 88.3355C22.677 88.2281 22.4379 88.2302 22.236 88.0167C22.0349 87.8054 21.874 87.3729 21.6919 87.0471C21.6435 86.9604 21.5667 86.818 21.5324 86.8532C20.9242 87.4886 20.5564 85.9712 20.0394 85.8145C19.9728 85.7942 19.904 85.7772 19.8408 85.7231C19.224 85.1903 18.6081 84.6552 17.9948 84.0988C17.9361 84.0458 17.8991 83.8436 17.7729 83.4857C18.8729 84.1454 19.8588 84.8223 20.8582 85.3142C21.8768 85.8148 22.9091 86.1337 23.9074 86.6267C24.1885 86.5345 24.4687 86.412 24.7521 86.3578C25.2049 86.27 25.6622 86.264 26.113 86.1437C26.2576 86.1048 26.3871 85.813 26.5094 85.6556C25.6591 85.3063 24.8335 84.9443 24.0053 84.636C23.3856 84.4057 22.7601 84.2852 22.1419 84.038C21.6351 83.8364 21.1317 83.543 20.6335 83.227C20.5683 83.1853 20.5401 82.7667 20.4686 82.3801C20.3743 82.6894 20.3151 82.8851 20.2136 83.2158C20.1106 82.1161 20.0182 81.1282 19.9172 80.0497C20.1131 79.8096 20.2069 79.5743 19.959 78.9111C19.7623 78.3851 19.715 77.5344 19.3881 77.2016C19.1681 76.9782 18.9473 76.7504 18.7352 76.4855C18.5658 76.2749 18.409 76.006 18.1967 75.6885C18.162 75.7427 18.0734 75.8861 17.9534 76.0803C17.9426 75.2684 18.0255 74.4473 17.9011 73.8856C17.7492 73.2032 17.3382 73.4013 17.1981 73.9039C16.6116 73.6249 16.068 73.3667 15.4673 73.0801C15.4591 73.1384 15.4179 73.4582 15.3911 73.6602C15.2365 73.7855 15.1106 73.888 14.9408 74.0247C14.6515 73.2892 15.105 73.2003 15.2847 72.4989C15.0312 72.4418 14.8553 72.4038 14.6087 72.3489C14.4685 71.3762 13.5717 72.17 13.6574 69.9062C13.3682 70.4869 13.2021 70.8196 13.036 71.1534C13.0121 71.3374 12.9875 71.5214 12.9636 71.7065C12.8562 71.3305 12.7495 70.9544 12.5953 70.4143C12.7849 70.2852 12.8853 70.2167 13.1055 70.0659C12.602 69.5148 12.1898 69.0632 11.7723 68.6062C11.841 68.1382 11.8992 67.7386 11.9621 67.3099C11.8078 67.1271 11.6781 66.9743 11.5216 66.7893C11.4786 66.9915 11.4337 67.2027 11.3801 67.4543C11.3473 67.3438 11.3247 67.2646 11.3001 67.1888C11.2197 66.9378 11.1261 66.4596 11.0588 66.4751C10.66 66.5667 10.5933 65.8249 10.4663 65.2329C10.333 64.6141 10.2498 63.8961 9.84589 64.1076C9.78062 64.1409 9.62332 63.7812 9.59312 63.5453C9.44079 62.3667 9.1559 62.3122 8.76694 62.8069C8.70122 62.8907 8.59351 62.7913 8.50429 62.7745C8.56294 63.1188 8.63833 63.4493 8.6643 63.7985C8.67045 63.8802 8.5082 64.0235 8.397 64.1728C8.2969 63.5838 8.39843 62.5475 7.86961 63.0507C7.93616 63.4139 8.0023 63.7759 8.12506 64.4441C7.92102 64.0436 7.75291 63.8778 7.71668 63.6151C7.59945 62.7496 7.36633 62.6027 7.04142 62.7112C6.2645 62.969 5.48733 63.0757 4.6981 62.6897C4.28245 62.4846 3.83369 62.6317 3.4337 62.3324C3.11607 62.0947 2.84933 61.4217 2.56054 60.9405C2.58453 60.8439 2.60915 60.746 2.63424 60.6494C2.96185 60.6954 3.29003 60.718 3.61672 60.7943C4.35386 60.9648 5.08922 61.1835 5.82598 61.3417C6.55831 61.5 7.29153 61.6403 8.02484 61.7034C8.1465 61.7141 8.30883 61.3445 8.37739 61.0467C8.42514 60.8389 8.38691 60.3757 8.31625 60.1683C8.21245 59.8684 8.05365 59.6408 7.90191 59.4838C7.62583 59.1985 7.30671 59.0997 7.06182 58.7109C6.82114 58.3299 6.65104 57.6847 6.4873 57.2511C6.56794 56.8894 6.71126 56.5447 6.68329 56.3076C6.64006 55.9341 6.52317 55.5548 6.27177 55.902C6.18996 56.0151 5.96672 55.5543 5.76718 55.305C5.70166 55.5007 5.62431 55.7336 5.53342 56.0059C5.14856 55.4543 4.78063 54.7401 4.36471 54.3827C3.90322 53.9867 3.39878 53.8803 2.91003 53.7143C2.41884 53.5461 1.92363 53.4564 1.43054 53.3442C1.31481 53.3177 1.19771 53.3529 1.08264 53.3264C0.951671 53.2934 0.820659 53.2246 0.690739 53.1715C0.690995 53.0259 0.69193 52.8814 0.692864 52.7368C0.995415 52.7328 1.29848 52.7176 1.60186 52.727C1.95869 52.739 2.33192 52.9267 2.66635 52.7419C2.9048 52.6111 3.08061 51.9512 3.30497 51.6032C3.44275 51.3886 3.62797 51.1542 3.77576 51.2127C4.10871 51.3461 4.31668 50.9065 4.36718 50.3412C4.42842 49.6594 4.60134 49.6739 4.79469 49.4887C4.97281 49.3161 5.10902 48.901 5.26359 48.5931C5.06167 48.3807 4.85984 48.0104 4.65769 47.9963C4.39241 47.9774 4.12819 48.3685 3.86295 48.3519C3.48182 48.3301 3.10077 48.0999 2.71782 47.6928C2.95797 47.6896 3.19768 47.6864 3.43673 47.6832C3.55255 46.6601 3.55255 46.6601 2.72881 46.3563C2.95874 46.2289 3.18845 46.1015 3.44739 45.958C3.4308 45.6693 3.4143 45.4029 3.38724 44.9384C3.85743 44.9322 4.30413 44.9273 4.75011 44.918C4.82548 44.917 4.93466 44.9638 4.9694 44.8658C5.42922 43.5693 6.19031 43.7373 6.74492 42.7117C6.68663 41.8825 6.77858 41.4747 7.25385 41.3899C7.75042 41.3004 8.22381 40.6433 8.70112 40.1968C8.73911 40.1604 8.72611 39.8257 8.72745 39.7954C8.41853 39.7021 8.14354 39.55 7.87185 39.5603C7.65198 39.5677 7.43886 39.8159 7.21795 39.8805C6.95461 39.9568 6.68331 40.0309 6.42024 39.9627C5.97303 39.8477 5.56103 39.8163 5.40036 40.691C5.02861 40.6959 4.74803 40.6997 4.44306 40.7037C4.44013 40.4831 4.43649 40.2098 4.43309 39.9544C5.09797 39.567 5.7531 39.2077 6.39944 38.7801C6.47635 38.7298 6.50788 38.3094 6.58351 37.9477C6.66811 38.2927 6.75202 38.6377 6.84431 39.0162C7.17862 38.7731 7.52489 38.5535 7.85729 38.2511C7.93848 38.1761 7.97378 37.8228 8.02923 37.5969C7.93085 37.6027 7.82496 37.5548 7.73601 37.6266C7.58449 37.7473 7.44427 37.9441 7.299 38.1084C7.26037 38.0294 7.22105 37.9493 7.18176 37.8714C7.32379 37.2657 7.46538 36.6601 7.62033 35.9983C7.68147 36.1532 7.74033 36.298 7.81879 36.4952C7.87389 36.2436 7.91898 36.0346 7.95393 35.8706C8.20643 35.9524 8.44148 36.0288 8.79021 36.1418C8.64434 35.6307 8.55841 35.3328 8.44563 34.9366C8.52731 34.865 8.63237 34.8501 8.6572 34.7333C8.69962 34.5345 8.72396 34.2496 8.697 34.0417C8.67003 33.8325 8.57104 33.6737 8.50338 33.4931C8.61119 33.4402 8.71782 33.3782 8.82654 33.3387C8.92558 33.3027 9.04396 33.3627 9.1225 33.253C9.20681 33.1331 9.25451 32.8659 9.31812 32.6623C9.23958 32.539 9.16239 32.4034 9.07984 32.2925C8.96701 32.1372 8.84979 31.9998 8.65583 31.756C9.0969 31.5115 9.42828 31.3268 9.75982 31.142C9.7519 31.0077 9.74438 30.8734 9.73646 30.7391C9.60993 30.612 9.48233 30.4849 9.35449 30.3566C9.35108 30.2648 9.34804 30.1719 9.34463 30.0801C9.7576 29.9525 10.1762 29.8853 10.5809 29.6727C10.8025 29.5544 10.9991 29.1866 11.2079 28.9363C11.6564 28.4027 12.1252 27.9451 12.5454 27.3066C12.7438 27.0038 12.808 26.1975 13.007 25.8969C13.3831 25.3262 13.8089 24.933 14.2211 24.5052C14.9458 23.7552 15.7006 23.1436 16.3948 22.2663C16.9282 21.5927 17.4467 20.7759 17.7918 19.4776C17.8712 19.1808 18.1182 19.1764 18.27 18.9649C18.4032 18.7794 18.5688 18.5431 18.613 18.2334C18.6484 17.9853 18.5592 17.4399 18.4611 17.3057C18.3447 17.1459 18.1381 17.1733 18.0101 17.315C17.5765 17.7935 17.1656 18.3815 16.7382 18.8856C16.3111 19.3897 15.8743 19.8447 15.3664 20.4048C15.4242 20.1218 15.4364 19.9503 15.4792 19.8657C15.8652 19.1157 16.4249 19.1116 16.7168 17.7938C16.8648 17.1242 17.4728 17.1519 17.8069 16.6266C18.7286 15.1795 19.8835 15.4677 20.8034 14.0799C20.8036 14.2591 20.8031 14.4383 20.8026 14.6164C21.0351 14.8307 21.2672 15.1938 21.5004 15.2143C21.7308 15.237 21.9573 14.8374 22.1947 14.7615C22.4687 14.6727 22.7531 14.7428 23.0327 14.7301C23.1974 14.7212 23.3623 14.6967 23.5262 14.6586C23.8329 14.5873 24.1411 14.5272 24.4455 14.4179C25.3102 14.1095 26.175 13.7877 27.0374 13.4492C27.4705 13.2776 27.8984 13.0558 28.318 12.6581C27.2496 11.6777 26.1806 13.0193 25.1294 12.369C25.8448 12.0985 26.5629 11.8638 27.2735 11.5429C27.8536 11.2821 28.422 10.8835 29.002 10.6182C29.2116 10.5224 29.4403 10.6628 29.6594 10.6431C29.8797 10.6233 30.0972 10.5387 30.3171 10.4808C30.4836 11.9875 31.2944 12.213 32.4002 11.1454C32.104 10.8648 31.8966 10.6704 31.6754 10.4605C31.7911 10.1409 31.9056 9.82457 32.0201 9.50941C32.0023 9.39763 31.985 9.28584 31.9677 9.17406C31.664 9.1781 31.3604 9.18214 31.0565 9.18619C31.056 9.0641 31.0561 8.94203 31.0567 8.82105C31.4781 8.81544 31.9 8.80983 32.3139 8.80432C32.2744 9.08376 32.2239 9.43504 32.1915 9.65726C32.4336 9.84894 32.6011 10.055 32.7745 10.1031C33.0394 10.1758 33.3093 10.161 33.5767 10.1417C33.7121 10.1332 33.8551 9.92409 33.9782 9.99638C34.3199 10.1935 34.4913 9.8294 34.5926 8.86921C34.7927 10.4997 35.2919 10.6107 35.7565 10.6415C36.2419 10.6742 36.7291 10.5064 37.2114 10.351C37.3111 10.3195 37.3896 9.95769 37.478 9.74929C37.3841 9.62396 37.2893 9.39226 37.1959 9.3879C36.5653 9.36269 35.9356 9.38674 35.3074 9.3951C35.3347 8.49415 35.4102 8.33634 35.8119 8.76C36.3129 9.291 36.7568 8.95913 37.3647 8.51531C37.0992 8.21305 36.9584 7.95392 36.8064 7.8977C36.3393 7.72245 35.8684 7.54279 35.3988 7.51432C34.7362 7.47497 34.0726 7.54986 33.4103 7.61692C32.4523 7.71256 31.491 7.75226 30.54 7.98783C29.2503 8.30407 27.9696 8.79047 26.6831 9.18172C26.4684 9.2473 26.2466 9.19644 26.0284 9.19935C26.0233 9.10868 26.0187 9.0169 26.014 8.92623C26.1909 8.88803 26.3899 8.96271 26.5388 8.79159C26.9778 8.29177 27.4713 7.87635 27.8057 7.09004C28.2613 6.01985 28.786 6.26485 29.1931 6.71869C29.6511 7.23122 30.0625 7.03422 30.4825 7.00399C31.4891 6.93122 32.4917 6.68939 33.4972 6.53599C34.6313 6.36408 35.7676 6.22686 36.9008 6.04039C37.0627 6.01472 37.2126 5.74386 37.3744 5.69466C37.5248 5.65009 37.6892 5.70058 37.8384 5.79716C38.2316 6.04956 38.6216 6.57306 39.01 6.58021C39.7994 6.59883 40.5893 6.39008 41.3748 6.18584C41.6339 6.11855 41.8725 5.61913 42.1286 5.59332C42.7 5.53419 43.276 5.66091 43.8507 5.68351C44.0236 5.69017 44.1973 5.60389 44.3971 5.30776C44.2924 5.13665 44.1479 4.7622 44.0896 4.82458C43.7104 5.24408 43.3916 4.62328 43.0455 4.5282C42.6384 4.41824 42.4893 3.8971 42.472 2.86345C43.1569 3.05932 43.82 3.24874 44.4677 3.43502C44.5094 4.23984 44.5444 4.92042 44.5815 5.64353C45.1736 5.6995 45.7225 5.77511 46.2701 5.78574C46.3652 5.78784 46.5262 5.54824 46.5351 5.37338C46.5493 5.11556 46.4658 4.80416 46.4038 4.54175C46.3346 4.24472 46.2438 3.97706 46.1618 3.69699C46.3072 3.58977 46.451 3.39968 46.5981 3.38988C47.3615 3.33715 48.1263 3.26988 48.8894 3.33477C49.247 3.36585 49.6232 3.56471 49.9537 3.90868C50.2628 4.23276 50.0932 4.76148 49.9173 5.10658C49.7061 5.51936 49.4803 5.88865 49.2835 6.43566C50.802 6.53642 52.3055 7.44165 53.7947 6.69038C53.8051 6.53118 53.8142 6.37313 53.824 6.21618C53.3283 5.84193 52.8335 5.46766 52.2867 5.05377C52.1936 4.28435 52.2783 3.92923 52.9439 3.9775C54.2838 4.07616 55.6236 4.23082 56.9623 4.42135C57.2052 4.45732 57.4446 4.77785 57.7209 4.9926C57.6394 5.29612 57.619 5.4521 57.5937 5.4558C56.6334 5.58396 55.673 5.7054 54.7119 5.80892C54.4512 5.83703 53.9508 6.66477 53.9303 7.01789C55.4132 7.44509 56.8987 7.88566 58.3848 8.29489C59.0251 8.47231 59.6818 8.81978 60.3045 8.6446C60.7243 8.52588 61.1326 8.51483 61.5487 8.50033C61.7258 8.49349 61.8986 8.29073 62.0341 8.20267C62.3381 8.2972 62.634 8.55309 62.8951 8.43088C63.3139 8.23489 63.6953 8.48746 64.0981 8.57507C64.6014 8.68487 65.1509 8.41882 65.6244 7.98463C66.2286 7.42884 66.8116 7.06596 67.4653 7.35745C67.5915 7.41178 67.7382 7.15221 67.9546 6.9701C68.3541 7.77465 68.8507 7.47231 69.3548 6.798C69.1213 6.75294 68.881 6.78417 68.658 6.6404C68.4758 6.52073 68.1334 6.91733 68.1255 5.9474C68.7749 5.66545 69.3936 5.39848 70.0122 5.13038C70.0559 5.11187 70.1107 5.04389 70.1433 5.08378C70.657 5.72438 71.1811 5.45754 71.8072 5.20165C71.6839 6.3772 71.5755 7.40472 71.4588 8.52305C71.0252 7.64839 70.591 7.65417 70.1151 8.25417C69.8971 8.52703 69.6297 8.6381 69.3452 8.43802C69.1981 8.33356 69.0097 8.59481 68.8478 8.76947C71.2235 9.73813 73.581 10.147 75.82 8.23425C75.9312 7.84408 76.017 7.23357 76.137 7.19949C76.2816 7.15836 76.451 7.62659 76.6175 7.84056C76.7589 8.02126 76.9109 8.15477 77.1853 8.44235C77.4018 9.3647 78.0244 9.90417 78.5854 9.44305C78.8085 9.25974 79.0477 9.18037 79.2795 9.05407C79.295 8.95305 79.3106 8.85316 79.3261 8.75214C79.0213 8.51089 78.7171 8.26959 78.442 8.05146C78.6194 7.77243 78.8057 7.47987 78.9908 7.18617C78.9685 7.03637 78.9463 6.88654 78.924 6.73786C78.5742 6.74251 78.2238 6.74718 77.8739 6.75183C77.8738 6.62078 77.8744 6.49086 77.8743 6.36093C78.3564 6.35451 78.8384 6.3481 79.3519 6.34126C79.2785 6.56851 79.2039 6.79802 79.0218 7.36275C79.6529 7.52237 80.1688 7.69023 80.6857 7.76848C80.927 7.80559 81.1723 7.68137 81.4138 7.61319C81.8678 7.48617 81.7113 6.67501 81.6694 5.85115C81.8158 6.40815 81.9189 6.80328 82.0209 7.19173C82.492 6.66236 82.8601 5.87338 83.4677 6.46681C83.8314 6.82153 84.317 6.4051 84.747 6.33553C84.7558 6.19763 84.7647 6.05972 84.773 5.92071C84.6136 5.73913 84.459 5.44998 84.2928 5.39394C83.7221 5.20216 83.1464 5.02049 82.5719 4.97213C82.0955 4.93367 81.6184 5.10472 81.1409 5.15252C80.9201 5.17338 80.6968 5.09902 80.4754 5.11205C79.9093 5.14422 79.3427 5.17866 78.7783 5.25338C78.0386 5.35059 77.3007 5.48924 76.5782 5.60639C76.5484 5.90362 76.5163 6.23674 76.4836 6.56874C76.3624 6.42249 76.2411 6.27622 76.1199 6.1311C76.0028 5.9904 75.8769 5.70758 75.7693 5.7359C75.3213 5.85387 74.8792 6.06698 74.4069 6.25585C74.4552 6.75703 74.4885 7.10158 74.5314 7.5401C74.2963 7.58356 74.0791 7.62339 73.8339 7.66922C73.8946 7.16211 73.9366 6.80872 74.0009 6.27356C73.3931 6.55384 72.8021 6.44745 72.6501 8.33578C72.5896 8.22906 72.5291 8.12343 72.4686 8.01671C72.5031 7.65332 72.5411 7.29217 72.57 6.92662C72.6048 6.50274 72.6318 6.07562 72.672 5.50157C72.8818 6.51698 73.1521 6.23557 73.4025 5.85923C73.7499 5.33822 74.0827 4.7648 74.4189 4.20138C74.8575 3.46633 75.3932 3.72916 75.7691 4.16213C76.2725 4.74126 76.7317 4.49765 77.1966 4.4713C78.3394 4.40344 79.4781 4.15531 80.6185 3.98667C81.8734 3.80083 83.1285 3.63181 84.382 3.42918C84.5279 3.40484 84.6678 3.21702 84.8085 3.09753C85.0243 2.91208 85.1885 2.82137 85.4311 3.25163C85.9854 4.23893 86.6614 4.09219 87.297 4.04004C87.9949 3.98259 88.689 3.76275 89.3825 3.57654C89.4923 3.54707 89.5844 3.24007 89.6964 3.19601C89.9605 3.08944 90.2319 3.06345 90.507 3.14716C91.1 2.18379 91.7931 3.4459 92.4259 2.93566C92.4598 2.18583 92.346 2.17057 92.0358 2.15342C91.5786 2.13038 91.1118 1.75793 90.6687 1.38971C90.56 1.30042 90.5261 0.651214 90.4244 0.0689769C91.2532 0.288694 91.9928 0.486074 92.7233 0.680215C92.7827 3.03171 92.7827 3.0261 93.7261 3.06619C94.0616 3.08077 94.3986 3.16589 94.7323 3.13457C94.8436 3.12412 95.0106 2.90797 95.0381 2.69365C95.0656 2.47822 94.9642 2.13011 94.8972 1.87337C94.8077 1.5318 94.6967 1.22185 94.5957 0.898356C94.7604 0.809912 94.9244 0.656517 95.0913 0.644214C95.9405 0.582505 96.7904 0.482725 97.6402 0.548704C98.0423 0.579197 98.4625 0.830113 98.8382 1.2026C99.1455 1.50879 98.9763 2.06886 98.8007 2.405C98.5813 2.82237 98.3418 3.17616 98.1106 3.55784C98.1116 3.67544 98.1126 3.79194 98.1136 3.90954C98.6637 3.98623 99.2138 4.06177 99.7644 4.14069C100.368 4.22787 100.971 4.3845 101.574 4.38992C102.104 4.3963 102.633 4.23805 103.163 4.15371C103.167 3.96323 103.171 3.77277 103.176 3.5834C102.607 3.19221 102.039 2.79986 101.429 2.38009C101.367 1.44784 101.442 1.18023 101.993 1.21322C102.952 1.27103 103.911 1.43415 104.87 1.5334C105.462 1.59386 106.055 1.55796 106.645 1.68453C106.922 1.74468 107.192 2.0827 107.535 2.34809Z" fill="white"/>
</svg>
