<svg width="171" height="92" viewBox="0 0 171 92" fill="none" xmlns="http://www.w3.org/2000/svg">
<path opacity="0.5" d="M52.6836 38.257C52.703 38.3239 52.7217 38.3904 52.7406 38.4574C53.0127 38.3934 53.2848 38.3295 53.5567 38.2662C53.5321 38.1907 53.5073 38.1147 53.4827 38.0393C53.2163 38.1117 52.9501 38.1846 52.6836 38.257ZM125.735 48.1439C125.696 48.1696 125.657 48.196 125.619 48.2224C125.768 48.3308 125.917 48.44 126.065 48.5489C126.075 48.2947 126.085 48.0406 126.095 47.7871C126.06 47.7795 126.026 47.7723 125.991 47.7645C125.905 47.8909 125.821 48.0175 125.735 48.1439ZM25.8204 48.5662C25.8016 48.5021 25.782 48.4383 25.7632 48.3743C25.5524 48.3761 25.338 48.3602 25.1353 48.3916C25.0841 48.3998 25.0265 48.5749 25.0533 48.6416C25.09 48.7318 25.2336 48.8666 25.2808 48.8499C25.4712 48.7829 25.6421 48.6653 25.8204 48.5662ZM64.3513 31.4802C64.331 31.4072 64.3106 31.3354 64.2907 31.2622C64.0594 31.2725 63.8239 31.269 63.6 31.3075C63.5559 31.3145 63.518 31.5006 63.5484 31.5785C63.5809 31.6614 63.7243 31.7842 63.7726 31.7665C63.9747 31.6964 64.1598 31.5794 64.3513 31.4802ZM123.744 49.1144C124.109 49.5813 124.396 49.539 124.489 49.0206C124.355 48.9083 124.218 48.794 124.094 48.6906C123.972 48.8393 123.868 48.9651 123.744 49.1144ZM128.64 47.3109C128.506 46.959 128.39 46.6575 128.127 46.7868C128.016 46.8416 127.907 47.1665 127.961 47.2716C128.217 47.7735 128.362 47.2963 128.64 47.3109ZM110.764 55.2548C110.41 55.3728 110.117 55.4706 109.824 55.5684C109.836 55.5965 109.847 55.624 109.859 55.6521C110.257 55.74 110.654 55.8283 111.148 55.9378C110.976 55.6334 110.854 55.4149 110.764 55.2548ZM4.63457 72.7504C4.65806 73.0217 4.67515 73.2148 4.69231 73.4084C4.73096 73.4379 4.76941 73.4673 4.80863 73.4971C5.00993 73.302 5.28661 73.1606 5.37785 72.8869C5.41546 72.7722 5.06171 72.3794 4.8861 72.1129C4.85503 72.1421 4.82426 72.1711 4.79372 72.2007C4.84978 72.3888 4.90624 72.5775 4.96229 72.7656C4.92893 72.7754 4.89545 72.7864 4.86209 72.7961C4.80002 72.6476 4.73816 72.4996 4.66307 72.32C4.51164 72.4367 4.37486 72.5184 4.26402 72.6361C4.20924 72.6938 4.20296 72.8169 4.17498 72.9101C4.26777 72.9103 4.36626 72.9267 4.45181 72.9047C4.51156 72.8899 4.55348 72.8226 4.63457 72.7504ZM5.59092 72.3716C5.75674 72.1392 5.88208 71.9316 6.03372 71.7579C6.22483 71.5383 6.16382 71.3924 5.90261 71.23C5.44096 70.9434 5.28035 70.9806 5.09858 71.454C5.04653 71.5908 4.99432 71.7272 4.94133 71.8656C5.07985 72.0739 5.20383 72.2618 5.26583 72.3552C5.434 72.3641 5.53524 72.3691 5.59092 72.3716ZM61.2423 33.3967C60.4614 33.5132 59.7835 33.7954 59.1176 34.2128C59.6349 34.7123 61.1176 34.1106 61.2423 33.3967ZM84.4716 68.2939C84.5018 68.3585 84.5321 68.4232 84.5626 68.4872C84.7589 68.4753 85.0648 68.5626 85.1314 68.4311C85.3723 67.9593 85.7984 67.946 86.1951 67.8252C86.4302 67.7533 86.6342 67.5943 86.8517 67.474C86.8307 67.3982 86.8088 67.3229 86.7881 67.2476C86.5941 67.2178 86.3652 67.1072 86.2125 67.1735C85.7554 67.3729 85.3218 67.6297 84.8927 67.8906C84.7328 67.9874 84.6105 68.1573 84.4716 68.2939ZM48.0663 81.6797C48.3435 81.9775 48.5547 82.0193 48.761 81.8462C48.9987 81.6461 49.2335 81.4406 49.4755 81.2483C49.6819 81.0848 49.8963 80.9352 50.1075 80.7792C50.0651 80.701 50.0219 80.6231 49.9783 80.5448C49.2444 80.6723 48.5365 80.8556 48.0663 81.6797ZM89.5845 65.6735C89.8286 66.0678 90.0775 66.0393 90.3125 65.8673C90.592 65.6636 90.8523 65.4277 91.1259 65.215C91.3534 65.0378 91.5891 64.8739 91.8213 64.7043C91.1581 64.3425 90.1875 64.8303 89.5845 65.6735ZM60.0798 75.5905C60.0975 75.6406 60.1161 75.6916 60.1346 75.742C61.2122 75.8371 62.1458 75.526 62.9411 74.7943C62.632 74.725 62.3289 74.6827 62.04 74.7028C61.5893 74.7353 61.0538 74.6072 60.9836 75.3913C60.9601 75.6541 60.7857 75.775 60.5711 75.4091C60.5226 75.3275 60.4636 75.2532 60.4013 75.1617C60.2794 75.3236 60.1794 75.4571 60.0798 75.5905ZM62.7743 75.364C62.7827 75.3929 62.7914 75.4216 62.7998 75.4505C63.457 75.3688 64.1141 75.2866 64.7844 75.2042C64.914 75.0978 65.0609 74.9315 65.243 74.8392C65.4924 74.7134 65.7691 74.6463 66.0332 74.5491C66.4622 74.3902 66.7405 74.0886 66.8055 73.679C65.4441 74.248 64.1097 74.8058 62.7743 75.364ZM78.6112 23.6169C78.5575 23.8114 78.5573 23.8828 78.5311 23.8956C77.6838 24.3055 76.8318 24.7042 75.9888 25.1219C75.8895 25.1712 75.8345 25.3189 75.7633 25.4254C75.7214 25.4878 75.6987 25.6142 75.6467 25.618C75.3153 25.6414 75.5038 25.8809 75.536 26.0731C76.2896 25.8312 76.9874 25.5659 77.7134 25.3847C78.4571 25.1998 79.2887 25.2364 79.9674 24.9192C80.5827 24.632 81.3855 24.755 81.8671 24.194C82.0322 24.0843 82.1681 23.9621 82.3274 23.8973C82.4707 23.8392 82.6473 23.8631 82.7949 23.814C82.8825 23.784 82.9429 23.6826 83.0159 23.6137C82.9101 23.5387 82.8052 23.4608 82.6989 23.3895C82.6398 23.3507 82.5775 23.3222 82.5089 23.222C83.1273 23.2369 83.5464 22.5869 84.2967 23.0058C84.5719 23.1593 84.9419 23.0413 85.2275 22.9404C85.7615 22.7508 86.28 22.5113 86.7787 22.2399C87.1004 22.0641 87.5289 22.0654 87.6978 21.6021C87.7186 21.5455 87.8484 21.5332 87.924 21.5604C88.6017 21.8004 89.1295 21.4731 89.6977 21.3051C90.1968 21.1589 90.6942 21.0061 91.1807 20.8285C91.2856 20.7901 91.3447 20.6329 91.3504 20.4338C91.8145 20.3436 92.2779 20.253 92.7853 20.1548C93.2312 20.7064 93.6203 20.247 94.0355 20.1795C94.5781 20.0912 95.0678 19.7624 95.6196 19.7692C96.0355 19.774 96.3013 19.5232 96.6515 19.441C96.787 19.4089 96.9317 19.4066 97.0767 19.4473C97.3569 19.29 97.6369 19.1322 97.8742 18.9976C97.9278 18.8158 97.946 18.539 98.0256 18.5321C98.1798 18.5192 98.3692 18.6546 98.5426 18.7338C98.6743 18.7939 98.8191 18.9264 98.9326 18.9161C99.4449 18.8692 99.9452 18.7722 100.457 18.7201C100.581 18.7067 100.729 18.7941 100.872 18.838C100.92 18.7546 100.952 18.5972 101.031 18.5737C101.846 18.3297 102.666 18.0995 103.49 17.8805C104.451 17.6245 105.415 17.3774 106.382 17.1409C106.601 17.0873 106.847 17.1199 107.067 17.0691C107.562 16.955 108.052 16.8215 108.536 16.6721C108.601 16.6521 108.618 16.4966 108.638 16.4498C108.832 16.4471 109.081 16.5165 109.234 16.4135C109.325 16.3521 109.266 16.0193 109.278 15.7139C109.499 15.7033 109.819 15.7161 110.119 15.6569C110.205 15.6396 110.228 15.412 110.243 15.3753C110.757 15.2454 111.227 15.142 111.686 15.0054C112.133 14.8724 112.568 14.7044 113.026 14.5459C113.015 14.3899 113.004 14.2363 112.986 13.9872C113.193 14.5019 113.401 14.4707 113.678 14.3344C114.014 14.1694 114.403 14.1237 114.758 13.9969C114.931 13.9351 115.067 13.7838 115.236 13.7102C115.683 13.5157 116.16 13.3851 116.581 13.1405C116.784 13.0224 117.18 12.96 116.908 12.3218C116.576 12.3534 116.214 12.3502 115.877 12.4286C115.357 12.5499 114.865 12.7593 114.341 12.8668C114.043 12.9271 113.706 12.8507 113.389 12.8531C113.315 12.8537 113.261 12.9509 113.187 12.9566C113.069 12.9646 112.926 12.9829 112.822 12.91C112.573 12.7348 112.431 12.6648 112.501 13.1018C112.561 13.4748 112.339 13.5807 112.126 13.664C111.526 13.8983 110.917 14.1082 110.321 14.3534C110.152 14.4238 110.017 14.5794 109.835 14.7203C109.694 14.6276 109.484 14.4895 109.274 14.3514C109.262 14.5156 109.251 14.6797 109.239 14.844C109.239 14.912 109.238 14.9807 109.237 15.0481C109.054 14.9047 108.871 14.7612 108.688 14.6172C108.64 14.5677 108.593 14.5179 108.545 14.4684C108.547 14.6484 108.549 14.8287 108.552 15.0989C108.409 14.9228 108.309 14.8001 108.16 14.6183C108.528 14.3316 108.86 14.0715 109.207 13.8C109.1 13.6451 109.014 13.5203 108.929 13.3956C108.939 13.3613 108.949 13.3275 108.96 13.2932C109.063 13.3449 109.203 13.3647 109.261 13.4544C109.442 13.7365 109.588 13.7008 109.782 13.6155C110.47 13.3136 111.176 13.0528 111.86 12.7427C112.11 12.6298 112.309 12.4045 112.549 12.2629C112.795 12.117 113.058 12.0029 113.319 11.8871C114.125 11.5317 114.948 11.214 115.733 10.8144C116.057 10.6497 116.307 10.3228 116.58 10.0557C116.894 9.74965 117.216 9.46503 117.504 9.11108C117.809 8.73656 118.424 8.74069 118.909 8.596C119.16 8.5216 119.425 8.48538 119.682 8.4287C119.733 8.41757 119.782 8.36314 119.828 8.37966C120.446 8.60236 120.938 8.42612 121.399 8.08479C121.539 7.98115 121.785 8.06721 121.951 7.993C122.071 7.93944 122.138 7.7648 122.154 7.74328C122.567 7.73433 122.9 7.77187 123.204 7.7101C123.812 7.58816 124.405 7.4187 124.999 7.25269C125.203 7.19581 125.393 7.09251 125.623 6.99647C125.618 6.94272 125.607 6.81436 125.591 6.62692C125.779 6.7496 125.922 6.84326 126.065 6.93694C126.05 6.89171 126.035 6.8463 126.02 6.80108C126.585 6.64396 127.153 6.49436 127.713 6.32549C127.922 6.26256 128.116 6.15633 128.316 6.06852C128.349 6.05378 128.377 6.00755 128.408 6.01499C129.324 6.24687 130.107 5.91806 130.931 5.76164C131.461 5.6603 131.984 5.53284 132.504 5.39425C132.747 5.32966 132.972 5.21097 133.205 5.1148C133.267 5.08908 133.325 5.0161 133.385 5.03225C134.235 5.25492 134.309 4.29076 134.734 3.86421C134.93 3.66784 135.168 3.51463 135.415 3.41306C135.608 3.33399 135.845 3.34435 136.067 3.35731C136.153 3.36177 136.254 3.48246 136.348 3.55055C136.307 3.6581 136.292 3.80426 136.221 3.86682C135.985 4.07563 135.729 4.25393 135.481 4.44354C135.509 4.52575 135.538 4.60746 135.566 4.68916C135.839 4.66611 136.116 4.65831 136.384 4.61868C137.177 4.50148 137.988 4.43849 138.749 4.22709C139.436 4.03705 140.063 3.67148 140.725 3.40549C140.857 3.35284 141.032 3.41156 141.183 3.40515C141.399 3.39642 141.744 3.69765 141.73 3.24839C141.963 3.22916 142.16 3.21371 142.46 3.18999C142.199 2.86563 142.032 2.64947 141.857 2.44259C141.652 2.20042 141.649 2.20399 141.862 1.99814C142.455 2.31236 142.865 2.75486 142.703 3.55684C142.578 3.57884 142.406 3.59223 142.249 3.64312C142.149 3.67587 142.069 3.76487 141.981 3.82899C142.066 3.93373 142.145 4.09609 142.236 4.1318C142.527 4.24635 142.833 4.37692 143.114 4.38397C143.5 4.39385 143.867 4.2861 144.247 4.24733C144.663 4.20543 145.084 4.18507 145.502 4.15191C145.582 4.14584 145.699 4.16381 145.731 4.10482C146.114 3.41785 146.791 3.30565 147.418 3.1126C147.697 3.02638 148.03 3.09695 148.323 3.04045C148.574 2.9913 148.906 2.99779 148.81 2.52335C149.772 2.91123 149.952 2.05514 150.243 1.35203C149.693 0.662915 149.058 1.01686 148.455 0.685735C149.168 0.542221 149.877 0.382633 150.6 0.278145C150.693 0.265021 150.949 0.536525 150.983 0.687858C151.252 1.89006 151.308 1.9653 152.25 2.18542C152.34 2.20666 152.475 2.33489 152.516 2.44065C152.809 3.18989 153.179 3.86056 153.712 4.43159C153.99 4.72972 154.08 4.68715 154.116 4.30579C154.184 4.35275 154.292 4.3923 154.303 4.44045C154.445 5.0443 154.889 5.24054 155.248 5.50921C155.413 5.63179 155.641 5.57781 155.84 5.60309C155.816 5.42284 155.749 5.21888 155.778 5.06548C155.842 4.7247 155.952 4.40874 156.045 4.08395C156.087 3.93886 156.11 3.77494 156.18 3.65762C156.253 3.53552 156.371 3.45898 156.47 3.36248C156.532 3.47019 156.607 3.57325 156.654 3.68692C156.699 3.79784 156.704 3.92422 156.748 4.03661C157.025 4.74789 156.966 4.93173 156.375 4.99855C156.484 5.25932 156.588 5.50783 156.702 5.78034C157.038 5.61432 157.351 5.46007 157.707 5.28409C157.84 5.49414 158.04 5.81051 158.267 6.16937C158.416 5.65966 158.765 5.53671 159.353 5.79373C159.892 6.02799 160.288 5.71251 160.755 5.67745C160.829 5.67194 160.868 5.50396 160.962 5.34734C161.005 5.4902 161.074 5.61454 161.054 5.67514C160.892 6.16443 161.177 6.13884 161.428 6.18059C161.898 6.25811 162.292 6.10538 162.7 5.94744C163.052 5.80982 163.456 5.74057 163.946 6.14298C163.778 6.17563 163.662 6.19896 163.458 6.23902C163.634 6.45086 163.771 6.61549 163.905 6.77691C163.579 6.99477 163.384 6.90262 163.179 6.47079C163.135 6.37829 162.98 6.26675 162.908 6.27837C162.525 6.33957 162.152 6.43788 161.705 6.53978C161.832 6.73294 161.914 6.85508 161.994 6.97939C162.194 7.29212 162.37 7.57568 162.148 7.91775C162.04 8.08461 162.053 8.37003 162.297 8.61296C162.459 8.77366 162.577 9.00814 162.748 9.25753C162.967 8.16723 163.741 8.82812 164.323 8.76301C164.196 8.96204 164.096 9.11959 163.983 9.29944C163.773 9.26974 163.514 9.2058 163.268 9.21002C163.169 9.21211 163.084 9.35096 163.026 9.45918C163.009 9.49027 163.118 9.70641 163.151 9.70793C163.248 9.71088 163.337 9.6518 163.428 9.61541C163.502 9.58556 163.575 9.55385 163.602 9.54279C163.677 9.80556 163.735 10.0045 163.791 10.2032C163.889 10.0862 163.986 9.96883 164.133 9.79183C164.259 9.84658 164.559 9.7331 164.66 10.2937C164.502 10.1881 164.403 10.1226 164.304 10.0571C164.282 10.0756 164.259 10.0948 164.235 10.1135C164.312 10.2727 164.363 10.483 164.47 10.5815C164.709 10.8022 164.866 10.995 164.77 11.3408C164.749 11.4162 164.855 11.6618 164.916 11.6861C165.172 11.788 165.431 11.8353 165.689 11.9031C165.695 11.855 165.701 11.8072 165.707 11.7586C165.819 11.9083 165.931 12.0579 166.093 12.2722C166.107 12.0769 166.116 11.9477 166.125 11.826C166.441 11.8293 166.391 12.6881 166.765 12.3801C167.03 12.5956 167.267 12.7884 167.568 13.0333C167.815 14.0305 168.558 14.8355 169.135 15.7471C169.676 16.6024 170.24 17.4403 170.426 18.464C170.513 18.9426 170.52 19.4237 170.541 19.8985C170.545 20.0017 170.447 20.0835 170.306 20.1087C170.328 19.9846 170.348 19.8602 170.375 19.7008C170.143 19.5492 169.907 19.3953 169.672 19.242C169.891 18.8734 169.724 18.1991 169.344 17.9206C169.291 17.882 169.234 17.8536 169.18 17.8163C168.663 17.4581 168.663 17.4581 168.521 18.1038C168.038 17.6439 167.568 17.1978 167.087 16.7406C166.958 16.8062 166.808 16.8824 166.705 16.9348C166.663 17.3702 166.625 17.7706 166.586 18.1711C166.542 18.1294 166.499 18.0877 166.455 18.0454C166.295 18.1866 166.157 18.3786 165.971 18.4581C165.612 18.6122 165.573 19.0901 165.347 19.371C164.873 19.9588 164.708 19.9926 163.91 19.2009C163.875 19.5423 163.793 19.8353 163.826 20.142C163.878 20.6391 163.905 21.0969 163.673 21.4706C163.639 21.5255 163.718 21.6988 163.745 21.8177C163.873 21.7873 164.003 21.7567 164.131 21.7263C164.118 21.6859 164.104 21.6448 164.091 21.6041C164.299 21.673 164.507 21.7423 164.765 21.8278C164.605 22.1591 164.647 22.6559 164.168 22.4795C164.157 22.4752 164.137 22.4848 164.133 22.4958C163.979 23.0177 163.429 23.1236 163.355 23.7287C163.345 23.8091 163.295 23.9146 163.323 23.9626C163.813 24.7796 163.194 24.9903 162.953 25.2311C162.472 25.7122 161.85 25.9952 161.281 26.3503C161.17 26.4197 161.021 26.4208 160.915 26.4985C160.803 26.5801 160.655 26.6874 160.64 26.833C160.582 27.3479 160.574 27.8843 160.544 28.4819C160.847 28.1778 161.11 27.8601 161.419 27.6206C161.685 27.4147 161.993 27.2707 162.303 27.1478C162.674 27.0002 162.812 27.3411 162.817 27.7129C162.823 28.0234 162.74 28.3122 162.696 28.6069C162.988 28.6545 163.367 28.2976 163.302 27.915C163.218 27.4226 163.3 27.0942 163.656 26.8384C163.671 27.0102 163.715 27.1642 163.688 27.2755C163.577 27.7316 163.695 27.9694 164.126 28.0014C164.209 28.0077 164.303 28.1101 164.395 28.2599C164.219 28.2673 164.041 28.2743 163.839 28.2822C163.855 28.4432 163.91 28.6086 163.874 28.7085C163.812 28.8846 163.676 29.1774 163.602 29.1465C163.194 28.9738 163.098 29.3595 162.868 29.5225C162.336 29.8975 161.818 30.3211 161.087 30.2375C160.445 30.1645 160.273 30.4861 160.379 31.2894C160.417 31.5704 160.303 31.8365 160.295 32.121C160.287 32.4406 160.342 32.7818 160.324 33.0974C160.312 33.3257 160.198 33.5175 160.179 33.7444C160.163 33.9327 160.183 34.1589 160.249 34.3505C160.387 34.7457 160.567 35.1295 160.762 35.5949C160.276 35.4918 159.876 35.4065 159.429 35.3122C159.484 35.6309 159.536 35.9304 159.596 36.2753C159.293 36.1951 159.1 36.1011 159.015 35.7087C158.892 35.1462 158.462 34.9478 158.038 34.538C158.071 34.9231 158.114 35.1945 158.112 35.4539C158.105 36.0905 158.067 36.7181 158.062 37.3548C158.06 37.5703 158.113 37.8019 158.156 38.1332C157.603 37.8659 157.064 37.6049 156.533 37.3471C156.41 37.6736 156.26 38.0761 156.106 38.4765C155.954 38.8754 155.894 39.3787 155.426 39.4691C155.341 39.1298 155.264 38.8163 155.176 38.4632C154.491 38.5495 153.857 38.6296 153.119 38.7229C153.291 38.5731 153.385 38.4911 153.511 38.3823C153.256 38.1113 153.023 38.0336 152.843 38.224C152.599 38.481 152.32 38.4635 151.991 38.3072C151.499 38.0739 151.02 37.9686 150.614 38.2599C150.439 38.3851 150.302 38.5756 150.182 38.7877C149.192 38.7813 148.189 38.8222 147.24 39.1322C146.719 39.3019 146.205 39.479 145.567 39.3193C145.111 39.2055 144.647 39.4133 144.208 39.5413C143.778 39.6671 143.371 39.8608 142.966 40.0523C142.817 40.1234 142.704 40.2732 142.576 40.3892C142.555 40.4067 142.544 40.4591 142.526 40.4558C141.977 40.354 141.895 41.0466 141.495 41.217C141.096 41.3874 140.776 41.751 140.373 41.9048C140.103 42.0074 139.747 41.9084 139.428 41.8693C139.155 41.836 138.923 41.8475 138.856 42.2073C138.844 42.2672 138.81 42.3297 138.767 42.3558C138.434 42.5606 138.526 42.9598 138.57 43.38C138.613 43.7901 138.563 44.1945 138.525 44.5899C138.499 44.858 138.34 44.8483 138.117 44.7851C137.851 44.7105 137.583 44.7529 137.317 44.7473C137.256 44.7462 137.16 44.7811 137.145 44.7545C137.1 44.6745 137.077 44.5711 137.064 44.4778C137.058 44.4336 137.099 44.3948 137.108 44.3478C137.142 44.1702 137.171 43.9914 137.202 43.8123C137.003 43.8179 136.788 43.7784 136.61 43.8385C136.219 43.9712 135.836 44.1315 135.472 44.3284C135.321 44.4101 135.227 44.6124 135.081 44.7935C134.859 44.7862 134.584 44.7775 134.23 44.7663C134.164 45.0755 134.08 45.4709 133.989 45.8992C133.941 45.8223 133.85 45.7354 133.846 45.6635C133.81 45.0645 133.607 45.155 133.334 45.3243C132.914 45.5844 132.472 45.8043 132.048 46.0563C131.952 46.1133 131.889 46.2343 131.809 46.3237C131.747 46.3916 131.694 46.4993 131.616 46.5148C131.173 46.6015 130.723 46.6655 130.238 46.7434C130.323 46.945 130.378 47.0777 130.501 47.3716C130.188 47.2631 129.959 47.1843 129.666 47.0826C129.601 47.1483 129.483 47.2739 129.359 47.3916C129.326 47.4226 129.263 47.4617 129.238 47.4409C128.87 47.1341 128.972 47.5222 128.935 47.7371C128.556 47.4366 128.524 47.686 128.596 48.0684C127.979 47.8756 127.508 48.0385 127.16 48.4455C127.265 48.6461 127.353 48.8123 127.44 48.979C127.26 48.8784 127.08 48.7774 126.874 48.6627C126.861 48.7284 126.836 48.846 126.811 48.9639C125.994 48.762 125.615 49.5525 125.004 49.7975C124.918 49.6764 124.846 49.5763 124.775 49.4771C124.714 49.5434 124.638 49.5959 124.596 49.6798C124.497 49.885 124.414 50.1043 124.324 50.3182C124.268 50.2671 124.212 50.2155 124.157 50.1637C124.253 50.0364 124.349 49.9087 124.446 49.7813C124.434 49.7476 124.421 49.7144 124.409 49.6811C124.108 49.7723 123.806 49.8643 123.505 49.9565C123.522 50.0063 123.54 50.0572 123.557 50.108C123.726 50.1813 123.896 50.2492 124.062 50.3387C124.078 50.3471 124.068 50.4873 124.073 50.6703C123.582 50.4071 123.137 50.1015 122.686 49.9526C122.359 49.8446 122.023 49.9449 121.66 49.9526C122.052 50.7552 121.414 50.6847 121.26 51.015C121.224 51.0885 121.111 51.1459 121.125 51.2026C121.314 52.0187 120.849 52.2191 120.45 52.4605C120.174 52.6272 119.859 52.7191 119.568 52.8604C118.973 53.1511 118.382 53.4514 117.79 53.7483C117.792 53.7966 117.794 53.8449 117.796 53.8932C118.066 53.9235 118.336 53.9539 118.717 53.9968C118.373 54.1405 118.118 54.2507 117.861 54.3535C117.593 54.4607 117.542 54.398 117.555 53.8454C117.271 53.9219 117.033 53.9861 116.763 54.0584C116.937 54.3085 117.036 54.4505 117.136 54.5929C117.07 54.6259 116.964 54.7079 116.946 54.6844C116.813 54.5174 116.698 54.3291 116.523 54.0645C115.226 54.6876 113.883 55.3322 112.541 55.9777C112.481 56.0061 112.421 56.0859 112.368 56.0645C111.665 55.7898 111.253 56.2689 110.754 56.5703C110.218 56.8951 109.615 57.0862 109.047 57.3511C108.596 57.5617 108.155 57.7957 107.711 58.0199C107.591 58.0808 107.481 58.1647 107.355 58.2078C106.676 58.438 105.994 58.6602 105.312 58.8796C105.253 58.8979 105.18 58.8745 105.084 58.792C105.454 58.5945 105.825 58.3964 106.217 58.1865C106.093 57.9389 105.987 57.7239 105.834 57.4162C105.692 57.6779 105.586 57.876 105.477 58.0771C104.766 57.6826 104.162 58.0395 104.067 58.9288C103.999 59.5509 103.975 59.5841 103.526 59.583C103.691 59.2355 103.729 58.8937 103.308 58.539C103.181 58.7144 103.048 58.899 102.891 59.1164C102.886 59.1152 102.714 59.0123 102.692 59.053C102.265 59.8394 101.36 59.7556 100.82 60.3256C100.751 60.3981 100.719 60.5212 100.678 60.6032C100.929 60.7003 101.123 60.8134 101.305 60.83C101.394 60.8383 101.484 60.6856 101.536 60.5721C101.679 60.2623 101.857 60.0708 102.204 60.2805C102.021 60.5012 101.817 60.6796 101.683 60.9246C101.413 61.4149 100.886 61.3296 100.501 61.5541C100.168 61.7483 99.8542 61.9803 99.5137 62.1586C99.4076 62.2137 99.1836 62.2144 99.1173 62.1264C98.7111 61.5864 98.4511 61.9421 98.1459 62.0588C97.8155 62.1856 97.4963 62.4497 97.1017 61.972C96.907 62.1277 96.7199 62.2797 96.5301 62.4291C96.4821 62.4666 96.426 62.5362 96.3763 62.521C95.7924 62.34 95.4503 62.7144 95.0747 63.0459C94.9271 63.1759 94.6955 63.1816 94.4973 63.2291C94.0734 63.3295 93.6459 63.4189 93.2559 63.6275C93.7107 63.7701 94.1662 63.913 94.6462 64.0631C94.7577 64.4529 94.6821 64.7165 94.3997 64.8507C94.0764 65.005 93.6993 65.0829 93.4436 65.3349C92.9938 65.7783 92.3451 65.6178 91.8388 65.8942C91.1322 66.2806 90.3425 66.4938 89.6169 66.8439C89.2617 67.0152 88.9974 67.3876 88.6439 67.5617C88.1358 67.8119 87.5803 67.9578 87.0501 68.1614C86.9023 68.2178 86.7842 68.3594 86.6318 68.3944C86.293 68.4707 85.9846 68.7591 85.5643 68.4006C85.5479 68.3858 85.5011 68.4378 85.4314 68.4813C85.5478 68.5855 85.6402 68.668 85.7323 68.75C85.7314 68.7851 85.731 68.8201 85.7297 68.8554C85.3852 68.8267 85.0417 68.8084 84.6952 68.7597C84.6378 68.7519 84.5564 68.6223 84.5084 68.5344C84.1974 67.9595 83.849 67.9012 83.5709 68.3352C83.471 68.4921 83.266 68.5424 83.1007 68.6235C82.8965 68.7244 82.6581 68.7653 82.4827 68.9094C82.3277 69.0371 82.1327 69.2571 82.1523 69.4605C82.1706 69.6465 82.4508 69.8657 82.6178 70.068C82.6792 70.1431 82.7461 70.2122 82.8331 70.3089C81.7212 70.7737 80.642 71.2248 79.5114 71.6974C79.4365 71.5183 79.3352 71.2759 79.1997 70.9518C78.8537 71.0965 78.4826 71.2516 78.112 71.4065C78.0816 71.3467 78.0517 71.2867 78.0215 71.2273C78.139 71.1381 78.2558 71.0485 78.4689 70.8869C78.2944 70.8423 78.1686 70.7642 78.0932 70.7993C77.7265 70.97 77.3503 71.1321 77.0206 71.3723C76.6667 71.63 76.3383 71.3159 75.9608 71.1673C75.9559 71.3414 75.9495 71.5503 75.947 71.6431C75.73 71.7338 75.5856 71.8085 75.4321 71.8553C75.1218 71.9508 74.7886 71.993 74.4961 72.1272C74.1052 72.3068 73.7447 72.554 73.3706 72.771C73.3072 72.8077 73.2473 72.8566 73.1772 72.8722C72.679 72.9845 72.0902 72.9417 71.7028 73.2373C71.3064 73.5408 70.862 73.4988 70.4338 73.5981C70.3333 73.6215 70.2421 73.6866 70.1584 73.7515C69.9455 73.9149 69.7441 74.107 69.3641 73.6963C69.3715 73.906 69.3758 74.0445 69.3808 74.1731C68.9 73.9838 68.5386 73.8303 68.3793 74.4754C68.3202 74.7172 67.8865 74.7354 67.6211 74.8499C66.9506 75.1397 66.2782 75.4274 65.6057 75.7121C65.5234 75.7471 65.4347 75.7656 65.3274 75.7985C65.3797 75.9235 65.4311 76.0465 65.484 76.1731C64.8698 75.7596 64.3866 75.7169 64.1313 76.4579C63.9456 76.4312 63.7092 76.3975 63.4727 76.3633C62.9577 76.0756 62.5626 76.0669 62.5352 76.3589C61.7363 76.3644 60.9748 76.3722 60.212 76.3732C59.7779 76.3737 59.3256 76.3038 58.9131 76.3767C58.6219 76.4282 58.3775 76.6557 58.1262 76.8297C58.067 76.87 58.0655 77.0127 58.0149 77.1837C58.1962 77.1637 58.3061 77.1513 58.4367 77.1369C58.4596 77.1981 58.5157 77.3029 58.502 77.3201C58.3209 77.5378 58.1621 77.8074 57.9349 77.9378C57.541 78.1641 57.1031 78.3028 56.6581 78.4888C56.3281 78.0171 56.0691 78.2674 55.7855 78.3794C55.4982 78.4929 55.2227 78.7705 54.8415 78.2812C54.7378 78.3803 54.6499 78.525 54.5234 78.5748C54.1799 78.7112 53.8137 78.7936 53.4673 78.9246C53.32 78.9796 53.1611 79.0621 53.0759 79.2015C52.9203 79.4572 52.7206 79.4495 52.4499 79.4452C52.0446 79.4377 51.6692 79.6162 51.2988 79.7854C51.7548 79.9629 52.2015 79.8451 52.6841 80.4461C52.7912 80.969 52.2882 80.9904 51.9857 81.2152C51.7561 81.3855 51.5108 81.5354 51.2553 81.656C51.1463 81.7064 50.9773 81.6175 50.8633 81.661C50.4164 81.8322 49.9823 82.0352 49.5401 82.2177C49.1657 82.3724 48.7693 82.4811 48.413 82.6732C48.0054 82.8933 47.6505 83.2245 47.2376 83.4319C46.7898 83.6563 46.3006 83.7912 45.8321 83.9721C45.6822 84.0299 45.5474 84.1264 45.3947 84.174C45.1083 84.2626 44.8432 84.5047 44.4815 84.1643C44.4698 84.1536 44.4232 84.2121 44.3713 84.2571C44.4653 84.3383 44.5437 84.4069 44.6225 84.4752C44.6236 84.5149 44.6247 84.5546 44.6262 84.5942C44.2783 84.5627 43.9303 84.5308 43.5824 84.4994C43.569 84.451 43.5561 84.4031 43.5425 84.3554C44.2395 84.0101 44.9355 83.6646 45.6805 83.2957C45.3839 82.9886 45.213 82.8514 44.9702 83.107C44.7589 83.329 44.4402 83.4035 44.1751 83.5544C43.9236 83.6985 43.6789 83.8565 43.3888 84.0348C43.148 83.8291 42.818 83.4353 42.6724 84.1376C42.6417 84.2835 42.3437 84.2816 42.1691 84.3485C42.0562 84.3922 41.9379 84.4254 41.8326 84.4838C41.3625 84.7457 41.1115 85.1071 41.9065 85.7508C41.9482 85.7855 41.9726 85.8628 42.0084 85.927C41.0156 86.342 40.0427 86.7487 39.0251 87.174C38.9602 86.9949 38.8782 86.769 38.7761 86.4874C38.459 86.5966 38.1285 86.7102 37.7976 86.8245C37.7711 86.7792 37.7452 86.7337 37.7186 86.6891C38.0082 86.5069 38.2973 86.3249 38.5863 86.1423C38.574 86.0989 38.5608 86.0559 38.5485 86.0124C38.0551 86.0772 37.5624 86.1411 37.0124 86.2133C36.8948 86.5826 36.2407 86.8566 35.9968 86.669C35.6607 86.8874 35.378 87.0973 35.0745 87.2632C34.611 87.5162 34.1452 87.7703 33.6568 87.9642C33.1929 88.148 32.6732 88.2015 32.2229 88.4119C31.7576 88.6286 31.3262 88.9024 30.7502 88.7476C30.7226 88.7405 30.6905 88.8175 30.6686 88.8626C30.5221 89.1553 30.316 89.2234 29.93 88.8878C29.9496 89.0594 29.9662 89.2029 29.9815 89.3356C29.5088 89.1028 29.1854 88.9928 29.0612 89.5771C29.0244 89.7519 28.7406 89.8016 28.5574 89.88C27.814 90.1991 27.0656 90.5071 26.2956 90.829C26.3579 90.9396 26.4195 91.05 26.5051 91.2036C25.9153 90.657 25.3359 90.7829 25.2889 91.3217C25.0559 91.3598 24.8619 91.4402 24.6594 91.4092C24.458 91.3789 24.2495 91.2334 24.043 91.1441C23.988 91.1203 23.9 91.0804 23.8785 91.108C23.4982 91.6026 22.9266 91.0269 22.4782 91.1268C22.4204 91.1396 22.3614 91.1546 22.3003 91.1508C21.7031 91.1108 21.1063 91.0695 20.5079 91.0176C20.4506 91.0127 20.3842 90.932 20.2173 90.8093C21.23 90.7469 22.1531 90.7304 23.0539 90.6242C23.9719 90.5156 24.8683 90.3189 25.7685 90.2136C25.9804 90.0777 26.1861 89.9282 26.4068 89.8089C26.7592 89.6179 27.1298 89.463 27.4747 89.2577C27.5852 89.1917 27.6381 89.0143 27.7092 88.9013C26.9552 89.0234 26.219 89.1315 25.4904 89.2652C24.9453 89.3654 24.4152 89.518 23.8682 89.61C23.42 89.6858 22.958 89.7183 22.4963 89.7386C22.4358 89.7411 22.3377 89.5579 22.2101 89.4038C22.189 89.5775 22.1761 89.6873 22.1529 89.8732C21.8717 89.4014 21.619 88.9777 21.3432 88.5151C21.4593 88.3395 21.4933 88.2 21.1726 87.9774C20.9182 87.8007 20.7269 87.4251 20.4014 87.3807C20.1824 87.3512 19.962 87.3198 19.742 87.2685C19.5665 87.2279 19.3907 87.1563 19.1611 87.0809C19.1426 87.1174 19.0964 87.2128 19.0337 87.3421C18.879 86.9722 18.7989 86.5668 18.5969 86.3497C18.3508 86.0863 18.0523 86.3142 18.0287 86.592C17.5018 86.6588 17.0135 86.7208 16.4737 86.7888C16.4775 86.8184 16.5015 86.9792 16.516 87.0811C16.4128 87.1901 16.3289 87.2792 16.2154 87.3986C15.8481 87.1564 16.2008 86.9646 16.2208 86.5822C16.0045 86.6402 15.8547 86.6813 15.6444 86.738C15.3557 86.3372 14.7692 87.0007 14.4322 85.9307C14.3014 86.2941 14.2262 86.5024 14.1511 86.7112C14.1647 86.8038 14.1778 86.8966 14.1916 86.9898C14.0367 86.8525 13.8824 86.715 13.6601 86.5178C13.7911 86.3953 13.8604 86.3304 14.0122 86.1877C13.5039 86.1017 13.0878 86.031 12.6663 85.9597C12.638 85.7215 12.6136 85.5183 12.5877 85.3001C12.4294 85.2674 12.2965 85.2402 12.136 85.2071C12.1374 85.3145 12.1388 85.4266 12.1405 85.5602C12.0939 85.5203 12.0613 85.4913 12.0278 85.4646C11.9173 85.3759 11.7553 85.1871 11.7034 85.2165C11.3956 85.3913 11.2081 85.0723 10.9985 84.8421C10.779 84.6018 10.5824 84.2991 10.292 84.5308C10.245 84.5678 10.0525 84.4547 9.98555 84.3562C9.64998 83.8646 9.40861 83.9343 9.18128 84.2913C9.1429 84.3517 9.03749 84.3418 8.96195 84.3638C9.07146 84.5026 9.19214 84.6297 9.27597 84.7816C9.29564 84.8172 9.18949 84.9371 9.12592 85.0428C8.93873 84.8051 8.8351 84.2945 8.49561 84.702C8.61495 84.8469 8.73376 84.9915 8.9536 85.2581C8.71578 85.1417 8.54933 85.1213 8.47267 85.0125C8.2219 84.6533 8.00599 84.6633 7.76136 84.8213C7.17611 85.1984 6.56348 85.506 5.85255 85.591C5.47782 85.6349 5.13944 85.8519 4.76051 85.8472C4.45959 85.8435 4.12186 85.6226 3.80065 85.4973C3.80278 85.4449 3.80523 85.3917 3.80826 85.3388C4.08285 85.251 4.35369 85.1522 4.63297 85.0787C5.26284 84.9119 5.89992 84.7679 6.52728 84.5956C7.15104 84.4248 7.77231 84.2454 8.37976 84.0305C8.48059 83.9949 8.54615 83.7709 8.54839 83.6111C8.54987 83.4995 8.43558 83.2991 8.34088 83.2272C8.20262 83.1238 8.03265 83.0719 7.88109 83.0501C7.60539 83.0107 7.32823 83.0714 7.05931 82.974C6.79521 82.8788 6.54102 82.6385 6.33003 82.4935C6.33059 82.3003 6.38518 82.094 6.31986 81.9942C6.21761 81.8367 6.05445 81.7011 5.91245 81.9445C5.86626 82.0238 5.60202 81.886 5.395 81.8377C5.37691 81.9496 5.35587 82.0824 5.3309 82.238C4.91895 82.1122 4.49154 81.906 4.08922 81.8799C3.64293 81.8513 3.21374 81.9701 2.7866 82.0563C2.35708 82.1424 1.93839 82.2658 1.5174 82.3783C1.41857 82.4046 1.32969 82.4597 1.23139 82.4858C1.11899 82.5142 1.00013 82.5261 0.884967 82.5449C0.859015 82.4778 0.833817 82.411 0.808616 82.3442C1.05384 82.2417 1.29747 82.1339 1.54579 82.0373C1.83803 81.9241 2.17515 81.8863 2.41382 81.69C2.58415 81.5505 2.60854 81.1884 2.72841 80.9537C2.80186 80.8091 2.91032 80.6396 3.04098 80.6174C3.3356 80.568 3.42568 80.2965 3.36519 80.0197C3.29249 79.6856 3.43567 79.6347 3.55957 79.4852C3.67336 79.3465 3.70952 79.1102 3.77986 78.9172C3.57756 78.8866 3.34696 78.7834 3.1801 78.8441C2.96106 78.9237 2.81653 79.1915 2.59791 79.2721C2.28417 79.3889 1.93306 79.4098 1.54861 79.3499C1.74326 79.2685 1.93755 79.1873 2.13131 79.1063C2.04167 78.597 2.04166 78.597 1.31745 78.7313C1.48148 78.5962 1.64533 78.4611 1.83006 78.309C1.76469 78.1817 1.70342 78.0646 1.59798 77.8599C1.97909 77.7006 2.34135 77.5498 2.70223 77.3971C2.76332 77.3716 2.86047 77.3568 2.87112 77.3001C3.012 76.5507 3.66089 76.3747 3.92751 75.7184C3.73115 75.3562 3.73264 75.138 4.10377 74.9409C4.49137 74.7346 4.75815 74.2747 5.06594 73.9105C5.0903 73.8811 5.01959 73.7314 5.01524 73.7171C4.74735 73.7769 4.49649 73.7984 4.27748 73.8936C4.10007 73.9701 3.9714 74.1552 3.80342 74.2584C3.60305 74.3811 3.39582 74.5055 3.16972 74.5616C2.78551 74.6575 2.44494 74.7801 2.47146 75.236C2.17015 75.3619 1.94273 75.457 1.69554 75.5603C1.65352 75.4598 1.60146 75.3352 1.55283 75.2189C2.02372 74.8194 2.49174 74.4362 2.94036 74.0244C2.99384 73.9757 2.94395 73.7718 2.94046 73.5802C3.0712 73.7108 3.20139 73.8416 3.34442 73.985C3.57253 73.762 3.81455 73.5457 4.03045 73.296C4.08297 73.2345 4.0482 73.0602 4.0527 72.9379C3.97376 72.9732 3.87908 72.9864 3.81966 73.049C3.71817 73.155 3.63954 73.2922 3.55097 73.4161C3.50537 73.3926 3.45901 73.3688 3.41307 73.3461C3.41974 73.0202 3.42603 72.6944 3.43311 72.3384C3.51063 72.3893 3.5845 72.4363 3.68371 72.501C3.6833 72.3669 3.68242 72.2557 3.68136 72.1686C3.90132 72.1223 4.10612 72.0792 4.40991 72.0152C4.19951 71.8286 4.07614 71.7201 3.91329 71.5754C3.96682 71.5152 4.04956 71.4734 4.04876 71.4114C4.04752 71.3058 4.01614 71.1667 3.95686 71.08C3.89736 70.9927 3.78836 70.9526 3.70092 70.892C3.77905 70.8318 3.8546 70.7678 3.93588 70.7134C4.00992 70.6639 4.11694 70.6521 4.16108 70.5756C4.20808 70.4924 4.19885 70.3535 4.21399 70.2387C4.12799 70.2081 4.04089 70.1714 3.95386 70.1478C3.83423 70.1139 3.71426 70.0897 3.51278 70.042C3.82742 69.7828 4.06361 69.5876 4.29994 69.3923C4.26938 69.3331 4.23914 69.2739 4.20857 69.2147C4.08287 69.1983 3.95631 69.1823 3.82935 69.1658C3.81008 69.1247 3.79092 69.0829 3.77165 69.0418C4.08445 68.8457 4.41269 68.6756 4.70344 68.4431C4.86237 68.315 4.95614 68.0803 5.08087 67.8957C5.3496 67.501 5.64846 67.1345 5.87539 66.701C5.98226 66.4956 5.88961 66.1033 5.99741 65.8988C6.20062 65.5111 6.47608 65.1886 6.73436 64.8546C7.18873 64.2684 7.69249 63.7359 8.0992 63.1013C8.41182 62.614 8.6866 62.0657 8.73388 61.3535C8.74509 61.1906 8.94506 61.1064 9.03055 60.9586C9.10544 60.829 9.19762 60.6651 9.17791 60.5079C9.16214 60.382 8.99162 60.1608 8.88781 60.1316C8.76445 60.0969 8.60141 60.1782 8.5228 60.286C8.2563 60.6503 8.02794 61.0575 7.77099 61.4317C7.51437 61.8057 7.24106 62.1604 6.92877 62.587C6.9249 62.4376 6.90403 62.3546 6.92363 62.3015C7.1027 61.828 7.55696 61.6399 7.5575 60.9365C7.55752 60.5792 8.05672 60.3897 8.23395 60.0368C8.72325 59.0644 9.71389 58.8128 10.2124 57.8682C10.2448 57.9506 10.2766 58.0333 10.3081 58.1154C10.5356 58.1366 10.7896 58.2265 10.9828 58.1583C11.1742 58.0921 11.2865 57.8329 11.4659 57.719C11.6727 57.587 11.9165 57.5246 12.1415 57.4258C12.2737 57.3669 12.4034 57.3007 12.5298 57.2287C12.7663 57.0938 13.0061 56.9637 13.2339 56.8121C13.8814 56.3826 14.5266 55.9468 15.1669 55.5041C15.4881 55.2811 15.7962 55.0367 16.0657 54.7142C15.0211 54.6185 14.3931 55.5914 13.4218 55.6419C13.9548 55.2794 14.4964 54.9326 15.0164 54.5485C15.441 54.2356 15.8316 53.8631 16.2553 53.5481C16.4086 53.4343 16.6197 53.4228 16.7942 53.3408C16.9698 53.2584 17.1314 53.1471 17.2998 53.0474C17.7057 53.6852 18.4054 53.5192 19.1126 52.6601C18.8214 52.6296 18.6178 52.6091 18.4003 52.5862C18.4369 52.4006 18.4732 52.217 18.5096 52.0339C18.4751 51.9884 18.441 51.9427 18.4068 51.897C18.1607 51.9999 17.9146 52.1028 17.6683 52.2057C17.6459 52.1497 17.6241 52.0935 17.6028 52.0377C17.9444 51.8949 18.2863 51.752 18.6219 51.6117C18.6399 51.7534 18.662 51.9318 18.6755 52.0449C18.9068 52.0525 19.08 52.0916 19.2296 52.0561C19.458 52.0014 19.6747 51.9048 19.8886 51.807C19.9972 51.758 20.0758 51.6142 20.1889 51.6065C20.5021 51.5835 20.5761 51.359 20.4859 50.8835C20.9415 51.5671 21.3672 51.4521 21.7504 51.3117C22.1509 51.1653 22.5168 50.926 22.8809 50.6941C22.9564 50.6464 22.9552 50.4538 22.9897 50.3285C22.8907 50.3021 22.7721 50.227 22.6954 50.2561C22.1782 50.4543 21.6706 50.6748 21.1615 50.8877C21.0218 50.464 21.0548 50.3663 21.4574 50.4276C21.9602 50.5053 22.2614 50.2049 22.6758 49.7985C22.4057 49.7477 22.2446 49.6754 22.1111 49.7C21.6998 49.7748 21.2847 49.8488 20.8979 49.9919C20.3522 50.1943 19.8262 50.4495 19.2998 50.7007C18.5382 51.0634 17.7639 51.4014 17.0331 51.8262C16.0414 52.4008 15.0878 53.0506 14.1122 53.6586C13.9494 53.7602 13.76 53.8106 13.5832 53.8845C13.5627 53.8445 13.5425 53.8038 13.5224 53.7636C13.6593 53.6872 13.8345 53.6554 13.9248 53.5271C14.1919 53.1511 14.5185 52.7958 14.649 52.3228C14.8271 51.6788 15.2977 51.617 15.7102 51.6904C16.1746 51.7738 16.4736 51.5463 16.8096 51.3927C17.6148 51.0243 18.3864 50.5795 19.1763 50.1744C20.0673 49.718 20.9664 49.2769 21.8541 48.8141C21.9811 48.7484 22.0543 48.5739 22.177 48.4975C22.2913 48.4269 22.434 48.3955 22.5726 48.3903C22.9376 48.3756 23.3487 48.4867 23.6657 48.3608C24.3108 48.1067 24.9154 47.7479 25.5173 47.3926C25.7158 47.2755 25.82 46.9663 26.0236 46.8692C26.4775 46.6519 26.9685 46.5186 27.4397 46.3378C27.5815 46.2834 27.7072 46.1859 27.8164 45.9832C27.7006 45.9393 27.5158 45.8151 27.4796 45.8632C27.2467 46.1823 26.8761 46.0028 26.5776 46.0742C26.2269 46.159 26.0121 45.9688 25.8123 45.499C26.4043 45.3613 26.9774 45.2278 27.5374 45.0981C27.7159 45.4545 27.8666 45.756 28.0267 46.0763C28.5181 45.9051 28.9778 45.7573 29.4249 45.58C29.5026 45.5493 29.5904 45.3855 29.5662 45.3021C29.5314 45.1788 29.4076 45.0633 29.3101 44.9632C29.2005 44.8495 29.0786 44.7566 28.9616 44.655C29.0605 44.5573 29.1433 44.422 29.2611 44.3686C29.8723 44.0903 30.4819 43.805 31.1139 43.5809C31.4102 43.4763 31.7517 43.4426 32.0822 43.4909C32.3917 43.5372 32.3487 43.8369 32.2678 44.0542C32.1703 44.3143 32.0531 44.5594 31.9913 44.8765C33.2438 44.4177 34.6287 44.334 35.7044 43.4929C35.6842 43.4162 35.6632 43.3405 35.643 43.265C35.1728 43.2577 34.7033 43.2502 34.1845 43.2416C33.9705 42.9186 33.9756 42.727 34.5254 42.5278C35.6323 42.1275 36.7493 41.7529 37.8717 41.3952C38.0757 41.3309 38.3279 41.3988 38.5911 41.4057C38.5793 41.5724 38.5908 41.651 38.5709 41.6611C37.8133 42.0395 37.0543 42.4149 36.2916 42.7823C36.0847 42.8819 35.8267 43.4292 35.8734 43.5985C37.1556 43.3018 38.4424 43.0103 39.724 42.7041C40.2764 42.5727 40.8726 42.5142 41.3474 42.2264C41.6673 42.0321 41.9972 41.8912 42.3329 41.7461C42.4756 41.684 42.5797 41.5333 42.6741 41.4477C42.9381 41.39 43.2247 41.4093 43.415 41.2662C43.7202 41.0367 44.0756 41.0261 44.4188 40.9324C44.8477 40.8154 45.2466 40.5102 45.5535 40.1529C45.9448 39.6962 46.3536 39.3353 46.9373 39.252C47.0497 39.235 47.1223 39.0667 47.2655 38.911C47.7348 39.1482 48.0842 38.8439 48.3729 38.366C48.175 38.4229 47.9852 38.5172 47.7781 38.5253C47.6085 38.5308 47.4014 38.8272 47.2208 38.3836C47.698 38.0378 48.153 37.7092 48.6077 37.38C48.6399 37.357 48.6722 37.3075 48.7059 37.315C49.2386 37.4388 49.6167 37.1417 50.0797 36.8156C50.1907 37.3975 50.2871 37.9063 50.3931 38.4597C49.8835 38.2015 49.5316 38.3486 49.2525 38.783C49.1243 38.9811 48.9269 39.1211 48.6596 39.1237C48.5213 39.1246 48.4151 39.3075 48.3148 39.4417C50.4201 39.097 52.4101 38.5008 53.8866 36.876C53.9069 36.6594 53.867 36.35 53.9584 36.2944C54.0685 36.2274 54.2904 36.3865 54.4642 36.4295C54.6116 36.4656 54.7591 36.4765 55.0339 36.5175C55.3755 36.8698 55.9786 36.9109 56.3518 36.5121C56.5003 36.3536 56.6804 36.2375 56.8462 36.1023C56.8406 36.0506 56.8353 35.9995 56.8298 35.9478C56.5387 35.9382 56.2481 35.9284 55.9852 35.9196C56.0793 35.7322 56.1782 35.5356 56.2759 35.3389C56.2309 35.2774 56.1859 35.2158 56.1411 35.1548C55.8575 35.2734 55.5735 35.3921 55.2899 35.5106C55.2664 35.4503 55.2434 35.3904 55.2201 35.3306C55.6108 35.1673 56.0015 35.004 56.4177 34.83C56.3988 34.959 56.3794 35.0894 56.3329 35.4098C56.8746 35.2733 57.3241 35.1789 57.7584 35.043C57.9612 34.9798 58.1383 34.841 58.3224 34.7293C58.6686 34.5198 58.3957 34.1986 58.2136 33.8335C58.4327 34.0411 58.5875 34.1886 58.7402 34.3334C59.0281 33.9331 59.1856 33.4476 59.7861 33.5185C60.1455 33.5608 60.4654 33.2076 60.8025 33.0326C60.7849 32.9662 60.7673 32.8998 60.7491 32.8331C60.5869 32.8025 60.4092 32.7209 60.2641 32.7504C59.7657 32.8521 59.2651 32.96 58.7894 33.1289C58.3951 33.2697 58.0381 33.5071 57.6584 33.6879C57.4827 33.771 57.2879 33.811 57.1102 33.8907C56.6558 34.0939 56.2013 34.2982 55.7559 34.5203C55.1721 34.8111 54.5972 35.1204 54.0309 35.4147C54.0601 35.5613 54.0938 35.7253 54.1268 35.8889C54.002 35.8619 53.8772 35.835 53.7526 35.8085C53.6321 35.7828 53.479 35.6945 53.3965 35.7434C53.0536 35.9467 52.7324 36.1918 52.3824 36.4358C52.5117 36.6503 52.6007 36.7978 52.7144 36.9853C52.531 37.0835 52.3616 37.1741 52.1705 37.2767C52.1288 37.0232 52.0995 36.8466 52.0556 36.579C51.6119 36.9102 51.1123 37.0578 51.3279 37.9772C51.2596 37.9482 51.1914 37.9198 51.1231 37.8908C51.0859 37.7121 51.0519 37.5333 51.0097 37.3555C50.9619 37.1489 50.907 36.9434 50.8366 36.6659C51.1896 37.0633 51.3587 36.8439 51.4947 36.5875C51.6835 36.2322 51.851 35.8577 52.0231 35.4866C52.2476 35.0025 52.7303 34.9452 53.1137 35.0193C53.6269 35.1183 53.9565 34.8535 54.3296 34.6867C55.2465 34.2753 56.1276 33.7823 57.0243 33.3253C58.0111 32.8224 59.001 32.3271 59.9836 31.8168C60.0979 31.7571 60.1778 31.6241 60.2708 31.5223C60.4129 31.3652 60.5301 31.2688 60.8046 31.3861C61.4326 31.6559 61.9557 31.3635 62.463 31.1281C63.0201 30.8695 63.5449 30.5374 64.0751 30.2211C64.1591 30.171 64.1789 29.9991 64.2619 29.9416C64.4575 29.8047 64.6735 29.7024 64.9121 29.6494C65.2212 29.0089 66.0113 29.359 66.4341 28.9137C66.3269 28.5574 66.2317 28.5883 65.9764 28.6836C65.6006 28.8251 65.1542 28.809 64.7278 28.787C64.6235 28.7821 64.4793 28.4947 64.292 28.2607C65.0052 28.086 65.6419 27.9308 66.2707 27.7771C66.7414 28.8392 66.7403 28.8366 67.5145 28.5412C67.7898 28.4363 68.079 28.3634 68.3447 28.2379C68.4333 28.1961 68.5303 28.0411 68.5141 27.9333C68.4978 27.8251 68.3528 27.6986 68.2522 27.6028C68.1181 27.4754 67.9722 27.3698 67.8319 27.2545C67.95 27.159 68.0557 27.0339 68.1892 26.9727C68.8684 26.6618 69.5414 26.3332 70.2441 26.0808C70.5764 25.9611 70.9631 25.9367 71.3354 25.9831C71.6402 26.0218 71.6033 26.3358 71.521 26.5488C71.4176 26.8139 71.2865 27.0563 71.1671 27.3088C71.189 27.3626 71.2107 27.4158 71.2327 27.4696C71.6937 27.3219 72.1544 27.1737 72.6162 27.0268C73.1222 26.8662 73.6409 26.7375 74.1318 26.5396C74.5642 26.366 74.9654 26.1174 75.381 25.9023C75.3502 25.8132 75.3194 25.7242 75.2893 25.6355C74.7565 25.6448 74.224 25.6533 73.6529 25.6631C73.4351 25.2547 73.4482 25.1066 73.9022 24.9384C74.692 24.646 75.501 24.402 76.2983 24.1287C76.79 23.9597 77.2661 23.7457 77.7681 23.6078C78.0046 23.5431 78.2848 23.6088 78.6112 23.6169Z" fill="#F9F9F9"/>
</svg>
