<svg width="84" height="85" viewBox="0 0 84 85" fill="none" xmlns="http://www.w3.org/2000/svg">
<path d="M2 4.66794C3.10457 4.66794 4 3.77558 4 2.67479C4 1.574 3.10457 0.681641 2 0.681641C0.89543 0.681641 0 1.574 0 2.67479C0 3.77558 0.89543 4.66794 2 4.66794Z" fill="#6C6C6C" fill-opacity="0.4"/>
<path d="M18 4.66794C19.1046 4.66794 20 3.77558 20 2.67479C20 1.574 19.1046 0.681641 18 0.681641C16.8954 0.681641 16 1.574 16 2.67479C16 3.77558 16.8954 4.66794 18 4.66794Z" fill="#6C6C6C" fill-opacity="0.4"/>
<path d="M34 4.66794C35.1046 4.66794 36 3.77558 36 2.67479C36 1.574 35.1046 0.681641 34 0.681641C32.8954 0.681641 32 1.574 32 2.67479C32 3.77558 32.8954 4.66794 34 4.66794Z" fill="#6C6C6C" fill-opacity="0.4"/>
<path d="M50 4.66794C51.1046 4.66794 52 3.77558 52 2.67479C52 1.574 51.1046 0.681641 50 0.681641C48.8954 0.681641 48 1.574 48 2.67479C48 3.77558 48.8954 4.66794 50 4.66794Z" fill="#6C6C6C" fill-opacity="0.4"/>
<path d="M66 4.66794C67.1046 4.66794 68 3.77558 68 2.67479C68 1.574 67.1046 0.681641 66 0.681641C64.8954 0.681641 64 1.574 64 2.67479C64 3.77558 64.8954 4.66794 66 4.66794Z" fill="#6C6C6C" fill-opacity="0.4"/>
<path d="M82 4.66794C83.1046 4.66794 84 3.77558 84 2.67479C84 1.574 83.1046 0.681641 82 0.681641C80.8954 0.681641 80 1.574 80 2.67479C80 3.77558 80.8954 4.66794 82 4.66794Z" fill="#6C6C6C" fill-opacity="0.4"/>
<path d="M2 20.6131C3.10457 20.6131 4 19.7208 4 18.62C4 17.5192 3.10457 16.6268 2 16.6268C0.89543 16.6268 0 17.5192 0 18.62C0 19.7208 0.89543 20.6131 2 20.6131Z" fill="#6C6C6C" fill-opacity="0.4"/>
<path d="M18 20.6131C19.1046 20.6131 20 19.7208 20 18.62C20 17.5192 19.1046 16.6268 18 16.6268C16.8954 16.6268 16 17.5192 16 18.62C16 19.7208 16.8954 20.6131 18 20.6131Z" fill="#6C6C6C" fill-opacity="0.4"/>
<path d="M34 20.6131C35.1046 20.6131 36 19.7208 36 18.62C36 17.5192 35.1046 16.6268 34 16.6268C32.8954 16.6268 32 17.5192 32 18.62C32 19.7208 32.8954 20.6131 34 20.6131Z" fill="#6C6C6C" fill-opacity="0.4"/>
<path d="M50 20.6131C51.1046 20.6131 52 19.7208 52 18.62C52 17.5192 51.1046 16.6268 50 16.6268C48.8954 16.6268 48 17.5192 48 18.62C48 19.7208 48.8954 20.6131 50 20.6131Z" fill="#6C6C6C" fill-opacity="0.4"/>
<path d="M66 20.6131C67.1046 20.6131 68 19.7208 68 18.62C68 17.5192 67.1046 16.6268 66 16.6268C64.8954 16.6268 64 17.5192 64 18.62C64 19.7208 64.8954 20.6131 66 20.6131Z" fill="#6C6C6C" fill-opacity="0.4"/>
<path d="M82 20.6131C83.1046 20.6131 84 19.7208 84 18.62C84 17.5192 83.1046 16.6268 82 16.6268C80.8954 16.6268 80 17.5192 80 18.62C80 19.7208 80.8954 20.6131 82 20.6131Z" fill="#6C6C6C" fill-opacity="0.4"/>
<path d="M66 36.5583C67.1046 36.5583 68 35.666 68 34.5652C68 33.4644 67.1046 32.572 66 32.572C64.8954 32.572 64 33.4644 64 34.5652C64 35.666 64.8954 36.5583 66 36.5583Z" fill="#6C6C6C" fill-opacity="0.4"/>
<path d="M82 36.5583C83.1046 36.5583 84 35.666 84 34.5652C84 33.4644 83.1046 32.572 82 32.572C80.8954 32.572 80 33.4644 80 34.5652C80 35.666 80.8954 36.5583 82 36.5583Z" fill="#6C6C6C" fill-opacity="0.4"/>
<path d="M66 52.5035C67.1046 52.5035 68 51.6111 68 50.5104C68 49.4096 67.1046 48.5172 66 48.5172C64.8954 48.5172 64 49.4096 64 50.5104C64 51.6111 64.8954 52.5035 66 52.5035Z" fill="#6C6C6C" fill-opacity="0.4"/>
<path d="M82 52.5035C83.1046 52.5035 84 51.6111 84 50.5104C84 49.4096 83.1046 48.5172 82 48.5172C80.8954 48.5172 80 49.4096 80 50.5104C80 51.6111 80.8954 52.5035 82 52.5035Z" fill="#6C6C6C" fill-opacity="0.4"/>
<path d="M66 68.4487C67.1046 68.4487 68 67.5563 68 66.4556C68 65.3548 67.1046 64.4624 66 64.4624C64.8954 64.4624 64 65.3548 64 66.4556C64 67.5563 64.8954 68.4487 66 68.4487Z" fill="#6C6C6C" fill-opacity="0.4"/>
<path d="M82 68.4487C83.1046 68.4487 84 67.5563 84 66.4556C84 65.3548 83.1046 64.4624 82 64.4624C80.8954 64.4624 80 65.3548 80 66.4556C80 67.5563 80.8954 68.4487 82 68.4487Z" fill="#6C6C6C" fill-opacity="0.4"/>
<path d="M66 84.394C67.1046 84.394 68 83.5017 68 82.4009C68 81.3001 67.1046 80.4077 66 80.4077C64.8954 80.4077 64 81.3001 64 82.4009C64 83.5017 64.8954 84.394 66 84.394Z" fill="#6C6C6C" fill-opacity="0.4"/>
<path d="M82 84.394C83.1046 84.394 84 83.5017 84 82.4009C84 81.3001 83.1046 80.4077 82 80.4077C80.8954 80.4077 80 81.3001 80 82.4009C80 83.5017 80.8954 84.394 82 84.394Z" fill="#6C6C6C" fill-opacity="0.4"/>
</svg>
