<svg width="24" height="24" viewBox="0 0 24 24" fill="none" xmlns="http://www.w3.org/2000/svg">
<path d="M7.72063 1.89952L11.5206 1.89952C12.0806 1.89952 13.3006 2.06952 13.9506 2.71952L16.9806 5.05952L16.0606 6.24952L12.9606 3.84952C12.7106 3.60952 12.0806 3.40952 11.5206 3.40952L7.72063 3.40952C6.82063 3.40952 5.85063 4.12952 5.65063 4.93952L3.23063 12.2895C3.07063 12.7295 3.10063 13.1295 3.31063 13.4195C3.53063 13.7295 3.93063 13.9095 4.42063 13.9095L8.42063 13.9095C8.94063 13.9095 9.42063 14.1295 9.75063 14.5095C10.0906 14.8995 10.2406 15.4195 10.1606 15.9595L9.66063 19.1695C9.54063 19.7295 9.92063 20.3595 10.4606 20.5395C10.9506 20.7195 11.5806 20.4595 11.8006 20.1395L15.9006 14.0395L17.1406 14.8695L13.0406 20.9695C12.4106 21.9095 11.0306 22.3595 9.95062 21.9495C8.70062 21.5395 7.90063 20.1595 8.18063 18.8795L8.67063 15.7295C8.68063 15.6595 8.68062 15.5595 8.61062 15.4795C8.56062 15.4295 8.49063 15.3995 8.41063 15.3995L4.41063 15.3995C3.43063 15.3995 2.58063 14.9895 2.08063 14.2795C1.59063 13.5895 1.49063 12.6795 1.81063 11.7995L4.20063 4.51952C4.57063 3.06952 6.11063 1.89952 7.72063 1.89952Z" fill="#8B8B8B"/>
<path d="M18.6211 2.99961L19.6211 2.99961C21.4711 2.99961 22.3711 3.86961 22.3711 5.64961L22.3711 15.4496C22.3711 17.2296 21.4711 18.0996 19.6211 18.0996L18.6211 18.0996C16.7711 18.0996 15.8711 17.2296 15.8711 15.4496L15.8711 5.64961C15.8711 3.86961 16.7711 2.99961 18.6211 2.99961ZM19.6211 16.5996C20.7111 16.5996 20.8711 16.3396 20.8711 15.4496L20.8711 5.64961C20.8711 4.75961 20.7111 4.49961 19.6211 4.49961L18.6211 4.49961C17.5311 4.49961 17.3711 4.75961 17.3711 5.64961L17.3711 15.4496C17.3711 16.3396 17.5311 16.5996 18.6211 16.5996L19.6211 16.5996Z" fill="#8B8B8B"/>
</svg>
